<svg width="20" height="20" viewBox="0 0 20 20" fill="none" xmlns="http://www.w3.org/2000/svg">
    <path
        d="M15.9999 4.00008L15.9998 16C18.2089 16 19.9999 14.2092 19.9999 12L19.9998 10.0799L19.9999 8.00008C19.9999 5.79096 18.209 4.00008 15.9999 4.00008Z"
        fill="currentColor" />
    <path
        d="M15.9999 4.00008L15.9998 3.96867C15.9829 1.77401 14.1984 0 11.9998 0H3.99998C3.99998 2.20912 5.79072 4.00008 7.99984 4.00008H15.9999Z"
        fill="currentColor" />
    <path
        d="M1.74844e-07 12C2.71407e-07 14.2092 1.79084 16 3.99996 16L3.99996 3.99996C1.79084 3.99996 0 5.79097 0 8.00008L1.74844e-07 12Z"
        fill="currentColor" />
    <path
        d="M7.99984 20H15.9999C15.9999 17.8014 14.226 16.017 12.0314 16H3.99996C3.99996 18.2092 5.79072 20 7.99984 20Z"
        fill="currentColor" />
</svg>