<svg width="20" height="20" viewBox="0 0 20 20" fill="none" xmlns="http://www.w3.org/2000/svg">
    <path d="M15.9997 7.99914V11.9991H19.9997V7.99914L15.9997 7.99914Z" fill="currentColor" />
    <path d="M0 7.99914L1.74843e-07 11.9991H3.99993L3.99993 7.99914L0 7.99914Z" fill="currentColor" />
    <path d="M1.74843e-07 11.9991H3.99993L3.99993 15.9995C1.79083 15.9995 2.71406e-07 14.2082 1.74843e-07 11.9991Z"
        fill="currentColor" />
    <path d="M3.99993 4.00018L3.99993 7.99914L0 7.99914C0 5.79003 1.79083 4.00018 3.99993 4.00018Z"
        fill="currentColor" />
    <path d="M15.9997 15.9995L15.9997 11.9991H19.9997C19.9997 14.2082 18.2088 15.9995 15.9997 15.9995Z"
        fill="currentColor" />
    <path d="M7.99982 11.9996H11.9998V15.9995C9.79066 15.9995 7.99982 14.2087 7.99982 11.9996Z" fill="currentColor" />
    <path d="M11.9998 4.00018V8.00011H7.99982C7.99982 5.79101 9.79066 4.00018 11.9998 4.00018Z" fill="currentColor" />
    <path d="M15.9997 3.99993L11.9998 4.00018L11.9998 0C14.2089 -9.65629e-08 15.9997 1.79083 15.9997 3.99993Z"
        fill="currentColor" />
    <path d="M15.9997 19.9994H11.9998L11.9998 15.9995C14.2089 15.9995 15.9997 17.7903 15.9997 19.9994Z"
        fill="currentColor" />
    <path d="M3.99993 15.9995L7.99988 15.9997V19.9997C5.79078 19.9997 3.99993 18.2086 3.99993 15.9995Z"
        fill="currentColor" />
    <path d="M3.99995 0.000243966L7.99988 0.00024368V4.00018C5.79078 4.00018 3.99995 2.20935 3.99995 0.000243966Z"
        fill="currentColor" />
    <path d="M19.9997 7.99914L15.9997 7.99914V3.99993C18.2088 3.99993 19.9997 5.79003 19.9997 7.99914Z"
        fill="currentColor" />
</svg>