<?xml version="1.0" standalone="no"?>
<!DOCTYPE svg PUBLIC "-//W3C//DTD SVG 20010904//EN"
 "http://www.w3.org/TR/2001/REC-SVG-20010904/DTD/svg10.dtd">
<svg version="1.0" xmlns="http://www.w3.org/2000/svg"
 width="512.000000pt" height="512.000000pt" viewBox="0 0 512.000000 512.000000"
 preserveAspectRatio="xMidYMid meet">
<metadata>
Created by potrace 1.14, written by Peter Selinger 2001-2017
</metadata>
<g transform="translate(0.000000,512.000000) scale(0.100000,-0.100000)"
fill="#000000" stroke="none">
<path d="M0 2560 l0 -2560 2560 0 2560 0 0 2560 0 2560 -2560 0 -2560 0 0
-2560z m1690 1160 l0 -580 928 -2 927 -3 74 -27 c176 -64 310 -202 364 -373
21 -67 22 -85 22 -465 0 -390 0 -396 -24 -468 -72 -219 -265 -375 -492 -399
l-56 -6 -7 -59 c-23 -223 -186 -423 -401 -491 -67 -21 -85 -22 -465 -22 -390
0 -396 0 -468 24 -219 72 -375 265 -399 492 l-6 56 -59 7 c-221 23 -418 182
-491 395 l-22 66 -3 957 c-3 1037 -4 1017 51 1139 50 112 156 222 270 281 49
25 171 57 220 57 l37 1 0 -580z"/>
<path d="M1691 2233 l-1 -833 870 0 870 0 0 580 0 580 -612 0 c-659 0 -673 1
-789 53 -112 50 -222 156 -281 270 -11 22 -28 71 -38 110 l-19 72 0 -832z"/>
</g>
</svg>
