<svg width="22" height="16" viewBox="0 0 22 16" fill="none" xmlns="http://www.w3.org/2000/svg">
<path d="M18.0588 1.32698C16.6989 0.713687 15.2412 0.260383 13.7169 0.0026222C13.7033 1.60717e-05 13.6892 0.00169555 13.6767 0.0074284C13.6641 0.0131612 13.6536 0.0226638 13.6466 0.0346201C13.46 0.362599 13.252 0.790126 13.1062 1.12788C11.4895 0.88633 9.84592 0.88633 8.22922 1.12788C8.06686 0.75356 7.88377 0.388574 7.68081 0.0346201C7.67393 0.0225166 7.66352 0.0127991 7.65098 0.00676426C7.63843 0.000729432 7.62434 -0.00133575 7.61059 0.000844454C6.08714 0.258605 4.62946 0.711909 3.26866 1.32609C3.25695 1.331 3.24702 1.33938 3.24021 1.35009C0.474174 5.41649 -0.283999 9.38245 0.0884214 13.2986C0.0894577 13.3082 0.092435 13.3175 0.0971719 13.3259C0.101909 13.3343 0.108306 13.3417 0.115975 13.3475C1.73044 14.5229 3.53116 15.4183 5.44274 15.9962C5.45606 16.0003 5.47031 16.0003 5.48363 15.9962C5.49695 15.9921 5.50872 15.984 5.5174 15.9731C5.92804 15.4221 6.29424 14.8399 6.6071 14.2284C6.62577 14.1928 6.60799 14.1501 6.57066 14.1359C5.99648 13.9197 5.44015 13.6588 4.90677 13.3555C4.89719 13.3501 4.88911 13.3423 4.88327 13.3329C4.87742 13.3236 4.874 13.3129 4.87329 13.3019C4.87259 13.2909 4.87463 13.2799 4.87923 13.2698C4.88383 13.2598 4.89085 13.2511 4.89966 13.2444C5.01165 13.1618 5.12365 13.0755 5.23031 12.9893C5.23991 12.9816 5.25147 12.9766 5.26371 12.9751C5.27595 12.9735 5.28839 12.9754 5.29963 12.9804C8.79007 14.5483 12.5703 14.5483 16.0198 12.9804C16.0311 12.9751 16.0437 12.973 16.0561 12.9744C16.0685 12.9758 16.0803 12.9807 16.09 12.9884C16.1967 13.0755 16.3078 13.1618 16.4207 13.2444C16.4296 13.2509 16.4367 13.2595 16.4415 13.2695C16.4462 13.2794 16.4484 13.2904 16.4479 13.3014C16.4474 13.3124 16.4441 13.3231 16.4384 13.3326C16.4328 13.342 16.4248 13.3499 16.4153 13.3555C15.8838 13.6613 15.331 13.9199 14.7506 14.135C14.7417 14.1383 14.7335 14.1434 14.7267 14.15C14.72 14.1566 14.7147 14.1646 14.7112 14.1734C14.7078 14.1823 14.7062 14.1917 14.7067 14.2012C14.7072 14.2107 14.7098 14.2199 14.7141 14.2284C15.0341 14.839 15.4003 15.4203 15.8029 15.9722C15.8113 15.9836 15.823 15.992 15.8363 15.9965C15.8497 16.0009 15.8641 16.0012 15.8776 15.9971C17.7925 15.4208 19.5961 14.525 21.2124 13.3475C21.2203 13.342 21.2269 13.3349 21.2318 13.3266C21.2367 13.3183 21.2398 13.3091 21.2408 13.2995C21.6852 8.77182 20.496 4.83786 18.0863 1.35187C18.0804 1.34054 18.0707 1.33171 18.0588 1.32698ZM7.12885 10.9139C6.07825 10.9139 5.21164 9.96375 5.21164 8.79849C5.21164 7.63234 6.06136 6.68307 7.12885 6.68307C8.20433 6.68307 9.06294 7.64034 9.04605 8.79849C9.04605 9.96463 8.19633 10.9139 7.12885 10.9139ZM14.2173 10.9139C13.1658 10.9139 12.3001 9.96375 12.3001 8.79849C12.3001 7.63234 13.1489 6.68307 14.2173 6.68307C15.2928 6.68307 16.1514 7.64034 16.1345 8.79849C16.1345 9.96463 15.2936 10.9139 14.2173 10.9139Z" fill="#F8FAF6"/>
</svg>
