<svg width="18" height="16" viewBox="0 0 18 16" fill="none" xmlns="http://www.w3.org/2000/svg">
<path d="M4.79784 15.999V5.20385H1.20974V15.999H4.79784ZM3.00425 3.72907C4.25548 3.72907 5.03431 2.90012 5.03431 1.86422C5.011 0.804959 4.25553 -0.000976562 3.028 -0.000976562C1.80065 -0.000976562 0.998047 0.804975 0.998047 1.86422C0.998047 2.90017 1.77669 3.72907 2.98083 3.72907H3.00414H3.00425ZM6.78383 15.999H10.3719V9.97047C10.3719 9.64783 10.3952 9.32553 10.49 9.09489C10.7494 8.45026 11.3398 7.78262 12.3309 7.78262C13.6293 7.78262 14.1488 8.77257 14.1488 10.2238V15.9989H17.7366V9.80909C17.7366 6.49324 15.9664 4.95041 13.6057 4.95041C11.6701 4.95041 10.8202 6.03236 10.3481 6.76927H10.372V5.20363H6.78391C6.831 6.21659 6.78391 15.9988 6.78391 15.9988L6.78383 15.999Z" fill="black"/>
</svg>
