<svg width="20" height="16" viewBox="0 0 20 16" fill="none" xmlns="http://www.w3.org/2000/svg">
<path d="M19.6817 1.89789C18.958 2.21861 18.1804 2.43531 17.363 2.53326C18.2064 2.0286 18.8374 1.23432 19.1383 0.298631C18.3459 0.769299 17.4786 1.1006 16.5742 1.27812C15.9661 0.628768 15.1605 0.198364 14.2827 0.0537355C13.4048 -0.0908933 12.5038 0.0583448 11.7195 0.47828C10.9351 0.898215 10.3114 1.56535 9.94502 2.37611C9.57869 3.18688 9.49028 4.0959 9.69351 4.96206C8.08791 4.88144 6.51721 4.46412 5.08333 3.73718C3.64945 3.01023 2.38445 1.98991 1.37042 0.742437C1.0237 1.34053 0.824335 2.03398 0.824335 2.7725C0.823948 3.43734 0.987669 4.09199 1.30097 4.67838C1.61428 5.26477 2.06748 5.76476 2.62036 6.13398C1.97916 6.11358 1.35211 5.94032 0.791396 5.62863V5.68064C0.791331 6.6131 1.11388 7.51687 1.7043 8.23859C2.29473 8.96031 3.11667 9.45553 4.03066 9.64022C3.43584 9.8012 2.81222 9.82491 2.20689 9.70957C2.46477 10.5119 2.96708 11.2135 3.64351 11.7162C4.31995 12.2188 5.13663 12.4974 5.97924 12.5128C4.54886 13.6357 2.78236 14.2448 0.963891 14.2421C0.641768 14.2422 0.319918 14.2234 0 14.1858C1.84585 15.3726 3.99455 16.0024 6.18901 16C13.6176 16 17.6786 9.84739 17.6786 4.51132C17.6786 4.33796 17.6742 4.16286 17.6664 3.9895C18.4563 3.41825 19.1382 2.71087 19.68 1.90049L19.6817 1.89789Z" fill="#212423"/>
</svg>
