<svg width="48" height="48" viewBox="0 0 48 48" fill="none" xmlns="http://www.w3.org/2000/svg">
<path d="M19 38H29V43C29 43.7956 28.6839 44.5587 28.1213 45.1213C27.5587 45.6839 26.7956 46 26 46H22C21.2044 46 20.4413 45.6839 19.8787 45.1213C19.3161 44.5587 19 43.7956 19 43V38Z" stroke="#BFF589" stroke-width="2" stroke-miterlimit="10"/>
<path d="M24 24V33" stroke="#BFF589" stroke-width="2" stroke-miterlimit="10" stroke-linecap="square"/>
<path d="M42 20.0001C42 17.7911 39.761 16.0001 37 16.0001C36.1682 15.9744 35.3421 16.1457 34.589 16.5001C33.836 16.8544 33.1774 17.3818 32.667 18.0391C32.1563 17.3818 31.4976 16.8544 30.7444 16.5001C29.9912 16.1457 29.165 15.9744 28.333 16.0001C27.5012 15.9744 26.6751 16.1457 25.922 16.5001C25.169 16.8544 24.5104 17.3818 24 18.0391C23.4896 17.3818 22.831 16.8544 22.078 16.5001C21.3249 16.1457 20.4988 15.9744 19.667 16.0001C18.835 15.9747 18.0087 16.1462 17.2556 16.5008C16.5024 16.8553 15.8437 17.3827 15.333 18.0401C14.8226 17.3826 14.1641 16.8552 13.411 16.5006C12.658 16.1461 11.8319 15.9746 11 16.0001C8.239 16.0001 6 17.7911 6 20.0001" stroke="#BFF589" stroke-width="2" stroke-miterlimit="10"/>
<path d="M31.889 33L42 20C42 15.2261 40.1036 10.6477 36.7279 7.27208C33.3523 3.89642 28.7739 2 24 2C19.2261 2 14.6477 3.89642 11.2721 7.27208C7.89642 10.6477 6 15.2261 6 20L16.111 33" stroke="#BFF589" stroke-width="2" stroke-miterlimit="10" stroke-linecap="square"/>
</svg>
