<svg width="48" height="48" viewBox="0 0 48 48" fill="none" xmlns="http://www.w3.org/2000/svg">
<path d="M24 30C27.3137 30 30 27.3137 30 24C30 20.6863 27.3137 18 24 18C20.6863 18 18 20.6863 18 24C18 27.3137 20.6863 30 24 30Z" stroke="#BFF589" stroke-width="2" stroke-miterlimit="10" stroke-linecap="square"/>
<path d="M42.068 2.26001L43.526 13.854L32.142 10.682" stroke="#BFF589" stroke-width="2" stroke-miterlimit="10" stroke-linecap="square"/>
<path d="M43.526 13.8539C41.2555 9.4799 37.5821 5.99491 33.0947 3.95761C28.6073 1.92031 23.5658 1.44871 18.7784 2.61841C13.991 3.78811 9.73495 6.53136 6.69259 10.4084C3.65022 14.2854 1.99773 19.0717 2 23.9999" stroke="#BFF589" stroke-width="2" stroke-miterlimit="10"/>
<path d="M5.932 45.74L4.474 34.146L15.858 37.318" stroke="#BFF589" stroke-width="2" stroke-miterlimit="10" stroke-linecap="square"/>
<path d="M4.474 34.146C6.74318 38.5227 10.4166 42.0104 14.9051 44.0496C19.3936 46.0888 24.4369 46.5613 29.2261 45.3913C34.0152 44.2213 38.2726 41.4767 41.3152 37.5976C44.3579 33.7186 46.0094 28.93 46.005 24" stroke="#BFF589" stroke-width="2" stroke-miterlimit="10"/>
</svg>
