<svg width="48" height="48" viewBox="0 0 48 48" fill="none" xmlns="http://www.w3.org/2000/svg">
<path d="M9 44C12.3137 44 15 41.3137 15 38C15 34.6863 12.3137 32 9 32C5.68629 32 3 34.6863 3 38C3 41.3137 5.68629 44 9 44Z" stroke="#BFF589" stroke-width="2" stroke-miterlimit="10" stroke-linecap="square"/>
<path d="M5.932 2.26001L4.474 13.854L15.858 10.682" stroke="#BFF589" stroke-width="2" stroke-miterlimit="10" stroke-linecap="square"/>
<path d="M4.474 13.854C6.39189 10.1609 9.31785 7.08761 12.9122 4.9907C16.5066 2.89379 20.622 1.85931 24.7807 2.00733C28.9394 2.15536 32.9708 3.47982 36.407 5.82698C39.8432 8.17413 42.5433 11.4477 44.1937 15.2677C45.8442 19.0878 46.3774 23.2976 45.7315 27.4084C45.0855 31.5193 43.2869 35.3627 40.5444 38.4924C37.8019 41.6222 34.228 43.9099 30.2375 45.0901C26.247 46.2703 22.0037 46.2945 18 45.16" stroke="#BFF589" stroke-width="2" stroke-miterlimit="10"/>
</svg>
