<svg width="48" height="48" viewBox="0 0 48 48" fill="none" xmlns="http://www.w3.org/2000/svg">
<path d="M24 14V24L32 32" stroke="#BFF589" stroke-width="2" stroke-miterlimit="10" stroke-linecap="square"/>
<path d="M5.932 2.26001L4.474 13.854L15.858 10.682" stroke="#BFF589" stroke-width="2" stroke-miterlimit="10" stroke-linecap="square"/>
<path d="M4.474 13.8539C6.95239 9.07946 11.0942 5.37853 16.1163 3.45083C21.1384 1.52313 26.6928 1.50227 31.7292 3.3922C36.7657 5.28212 40.9351 8.95185 43.4493 13.7075C45.9635 18.4632 46.6481 23.9753 45.3738 29.2015C44.0994 34.4278 40.9543 39.006 36.5333 42.0706C32.1122 45.1352 26.7215 46.4738 21.3804 45.8332C16.0393 45.1927 11.118 42.6174 7.54689 38.5944C3.97581 34.5713 2.00248 29.3793 2 23.9999" stroke="#BFF589" stroke-width="2" stroke-miterlimit="10"/>
</svg>
