<svg width="48" height="48" viewBox="0 0 48 48" fill="none" xmlns="http://www.w3.org/2000/svg">
<path d="M21.2 21.2L13 13" stroke="#BFF589" stroke-width="2" stroke-miterlimit="10" stroke-linecap="square"/>
<path d="M24 28C26.2091 28 28 26.2091 28 24C28 21.7909 26.2091 20 24 20C21.7909 20 20 21.7909 20 24C20 26.2091 21.7909 28 24 28Z" stroke="#BFF589" stroke-width="2" stroke-miterlimit="10" stroke-linecap="square"/>
<path d="M18.8 11.0002C20.9244 10.1521 23.2242 9.83724 25.4984 10.0831C27.7726 10.3289 29.952 11.128 31.8461 12.4105C33.7403 13.693 35.2915 15.4198 36.3642 17.4401C37.4369 19.4604 37.9986 21.7127 38 24.0002" stroke="#BFF589" stroke-width="2" stroke-miterlimit="10"/>
<path d="M10 23.9998C9.99843 22.2185 10.3379 20.4534 11 18.7998" stroke="#BFF589" stroke-width="2" stroke-miterlimit="10"/>
<path d="M24 46C36.1503 46 46 36.1503 46 24C46 11.8497 36.1503 2 24 2C11.8497 2 2 11.8497 2 24C2 36.1503 11.8497 46 24 46Z" stroke="#BFF589" stroke-width="2" stroke-miterlimit="10" stroke-linecap="square"/>
</svg>
