<svg width="101" height="100" viewBox="0 0 101 100" fill="none" xmlns="http://www.w3.org/2000/svg">
    <path class="star"
        d="M100.001 60.0019C88.9557 60.0019 80.0014 68.9562 80.0014 80.0019C80.0014 68.9562 71.0471 60.0019 60.0015 60.0019C71.0471 60.0019 80.0014 51.0476 80.0014 40.002C80.0014 51.0476 88.9557 60.0019 100.001 60.0019Z"
        fill="#F6CBA4" />
    <g opacity="0.2">
        <path
            d="M100 9.99999C94.4771 9.99999 90 14.4771 90 20C90 14.4771 85.5228 9.99999 80 9.99999C85.5228 9.99999 90 5.52284 90 0C90 5.52284 94.4771 9.99999 100 9.99999Z"
            fill="#F8FAF6" />
    </g>
    <g opacity="0.1">
        <rect width="20" height="20" transform="matrix(4.37114e-08 -1 -1 -4.37114e-08 59.9966 100)" fill="#F8FAF6" />
        <path d="M79.9966 80L59.9966 80L59.9966 100C71.0423 100 79.9966 91.0457 79.9966 80Z" fill="#F8FAF6" />
        <path d="M19.9976 80L39.9976 80L39.9976 100C28.9519 100 19.9976 91.0457 19.9976 80Z" fill="#F8FAF6" />
    </g>
    <g opacity="0.2">
        <rect width="20" height="20" transform="matrix(4.37114e-08 -1 -1 -4.37114e-08 20.002 50.0039)" fill="#F8FAF6" />
        <path d="M20 10.002L20 30.0019L0 30.0019C0 18.9563 8.9543 10.002 20 10.002Z" fill="#F8FAF6" />
        <path d="M8.74228e-07 50.002L20 50.002L20 70.002C8.9543 70.002 3.91405e-07 61.0477 8.74228e-07 50.002Z"
            fill="#F8FAF6" />
    </g>
    <g opacity="0.4">
        <path
            d="M80.0005 20.0029L60.0005 20.0029H39.9998C39.9998 8.95723 48.9549 0.00292969 60.0005 0.00292969C71.0462 0.00292969 80.0005 8.95723 80.0005 20.0029Z"
            fill="#F8FAF6" />
    </g>
    <g opacity="0.1">
        <path d="M70.0015 40.0049L60.0015 40.0049L60.0015 30.0049C65.5243 30.0049 70.0015 34.482 70.0015 40.0049Z"
            fill="#F8FAF6" />
        <path d="M59.999 30.0049L59.999 40.0049L49.999 40.0049C49.999 34.482 54.4762 30.0049 59.999 30.0049Z"
            fill="#F8FAF6" />
    </g>
</svg>