<svg xmlns="http://www.w3.org/2000/svg" fill="none" viewBox="0 0 722 530"><path fill="#BFF589" d="M369 257v.5-.5Zm-16 16v-.5.5Zm16-64v-.5.5Zm0-16v-.5.5Zm-16 0v.5-.5Zm0 16v.5-.5Zm48 32h-.5.5Zm0-16h.5-.5Zm-16 32h-.5v.5h.5v-.5Zm-48 0v-.5h-.5v.5h.5Zm48 16v.5h.5v-.5h-.5Zm-48-80v-.5h-.5v.5h.5Zm32 63.5h-16v1h16v-1Zm-16 17h16v-1h-16v1Zm16-81h-16v1h16v-1Zm-16 17h16v-1h-16v1Zm31.5 15.5v16h1v-16h-1Zm17 16v-16h-1v16h1Zm-17 0v16h1v-16h-1Zm.5 16.5c9.113 0 16.5-7.387 16.5-16.5h-1c0 8.56-6.94 15.5-15.5 15.5v1Zm-16-48h16v-1h-16v1Zm16.5-.5c0-9.113-7.387-16.5-16.5-16.5v1c8.56 0 15.5 6.94 15.5 15.5h1ZM369 273.5h16v-1h-16v1Zm16.5-.5c0-9.113-7.387-16.5-16.5-16.5v1c8.56 0 15.5 6.94 15.5 15.5h1ZM353 256.5h-16v1h16v-1Zm-16.5.5c0 9.113 7.387 16.5 16.5 16.5v-1c-8.56 0-15.5-6.94-15.5-15.5h-1Zm16.5-64.5h-16v1h16v-1Zm-16.5.5c0 9.113 7.387 16.5 16.5 16.5v-1c-8.56 0-15.5-6.94-15.5-15.5h-1Zm48 16v16h1v-16h-1Zm17 16c0-9.113-7.387-16.5-16.5-16.5v1c8.56 0 15.5 6.94 15.5 15.5h1Zm0 16v-7.68h-1V241h1Zm0-7.68V225h-1v8.32h1Z" class="path"/><path fill="#BFF589" d="M433 257v.5-.5Zm-16 16v-.5.5Zm16-64v-.5.5Zm0-16v-.5.5Zm-16 0v.5-.5Zm0 16v.5-.5Zm48 32h-.5.5Zm0-16h.5-.5Zm-16 32h-.5v.5h.5v-.5Zm-48 0v-.5h-.5v.5h.5Zm48 16v.5h.5v-.5h-.5Zm-48-80v-.5h-.5v.5h.5Zm32 63.5h-16v1h16v-1Zm-16 17h16v-1h-16v1Zm16-81h-16v1h16v-1Zm-16 17h16v-1h-16v1Zm31.5 15.5v16h1v-16h-1Zm17 16v-16h-1v16h1Zm-17 0v16h1v-16h-1Zm.5 16.5c9.113 0 16.5-7.387 16.5-16.5h-1c0 8.56-6.94 15.5-15.5 15.5v1Zm-16-48h16v-1h-16v1Zm16.5-.5c0-9.113-7.387-16.5-16.5-16.5v1c8.56 0 15.5 6.94 15.5 15.5h1ZM433 273.5h16v-1h-16v1Zm16.5-.5c0-9.113-7.387-16.5-16.5-16.5v1c8.56 0 15.5 6.94 15.5 15.5h1ZM417 256.5h-16v1h16v-1Zm-16.5.5c0 9.113 7.387 16.5 16.5 16.5v-1c-8.56 0-15.5-6.94-15.5-15.5h-1Zm16.5-64.5h-16v1h16v-1Zm-16.5.5c0 9.113 7.387 16.5 16.5 16.5v-1c-8.56 0-15.5-6.94-15.5-15.5h-1Zm48 16v16h1v-16h-1Zm17 16c0-9.113-7.387-16.5-16.5-16.5v1c8.56 0 15.5 6.94 15.5 15.5h1Zm0 16v-7.68h-1V241h1Zm0-7.68V225h-1v8.32h1Z" class="path"/><path fill="#BFF589" d="M113 257v.5-.5Zm-16 16v-.5.5Zm16-64v-.5.5Zm0-16v-.5.5Zm-16 0v.5-.5Zm0 16v.5-.5Zm48 32h-.5.5Zm0-16h.5-.5Zm-16 32h-.5v.5h.5v-.5Zm-48 0v-.5h-.5v.5h.5Zm48 16v.5h.5v-.5h-.5Zm-48-80v-.5h-.5v.5h.5Zm32 63.5H97v1h16v-1Zm-16 17h16v-1H97v1Zm16-81H97v1h16v-1Zm-16 17h16v-1H97v1Zm31.5 15.5v16h1v-16h-1Zm17 16v-16h-1v16h1Zm-17 0v16h1v-16h-1Zm.5 16.5c9.113 0 16.5-7.387 16.5-16.5h-1c0 8.56-6.94 15.5-15.5 15.5v1Zm-16-48h16v-1h-16v1Zm16.5-.5c0-9.113-7.387-16.5-16.5-16.5v1c8.56 0 15.5 6.94 15.5 15.5h1ZM113 273.5h16v-1h-16v1Zm16.5-.5c0-9.113-7.387-16.5-16.5-16.5v1c8.56 0 15.5 6.94 15.5 15.5h1ZM97 256.5H81v1h16v-1Zm-16.5.5c0 9.113 7.3873 16.5 16.5 16.5v-1c-8.5604 0-15.5-6.94-15.5-15.5h-1ZM97 192.5H81v1h16v-1Zm-16.5.5c0 9.113 7.3873 16.5 16.5 16.5v-1c-8.5604 0-15.5-6.94-15.5-15.5h-1Zm48 16v16h1v-16h-1Zm17 16c0-9.113-7.387-16.5-16.5-16.5v1c8.56 0 15.5 6.94 15.5 15.5h1Zm0 16v-7.68h-1V241h1Zm0-7.68V225h-1v8.32h1Z" class="path"/><path fill="#BFF589" d="M497 257v.5-.5Zm-16 16v-.5.5Zm16-64v-.5.5Zm0-16v-.5.5Zm-16 0v.5-.5Zm0 16v.5-.5Zm48 32h-.5.5Zm0-16h.5-.5Zm-16 32h-.5v.5h.5v-.5Zm-48 0v-.5h-.5v.5h.5Zm48 16v.5h.5v-.5h-.5Zm-48-80v-.5h-.5v.5h.5Zm32 63.5h-16v1h16v-1Zm-16 17h16v-1h-16v1Zm16-81h-16v1h16v-1Zm-16 17h16v-1h-16v1Zm31.5 15.5v16h1v-16h-1Zm17 16v-16h-1v16h1Zm-17 0v16h1v-16h-1Zm.5 16.5c9.113 0 16.5-7.387 16.5-16.5h-1c0 8.56-6.94 15.5-15.5 15.5v1Zm-16-48h16v-1h-16v1Zm16.5-.5c0-9.113-7.387-16.5-16.5-16.5v1c8.56 0 15.5 6.94 15.5 15.5h1ZM497 273.5h16v-1h-16v1Zm16.5-.5c0-9.113-7.387-16.5-16.5-16.5v1c8.56 0 15.5 6.94 15.5 15.5h1ZM481 256.5h-16v1h16v-1Zm-16.5.5c0 9.113 7.387 16.5 16.5 16.5v-1c-8.56 0-15.5-6.94-15.5-15.5h-1Zm16.5-64.5h-16v1h16v-1Zm-16.5.5c0 9.113 7.387 16.5 16.5 16.5v-1c-8.56 0-15.5-6.94-15.5-15.5h-1Zm48 16v16h1v-16h-1Zm17 16c0-9.113-7.387-16.5-16.5-16.5v1c8.56 0 15.5 6.94 15.5 15.5h1Zm0 16v-7.68h-1V241h1Zm0-7.68V225h-1v8.32h1Z" class="path"/><path fill="#BFF589" d="M561 273v-.5.5Zm-16-16v.5-.5Zm16 64v.5-.5Zm0 16v.5-.5Zm-16 0v-.5.5Zm0-16v-.5.5Zm48-32h-.5.5Zm0 16h.5-.5Zm-16-32h-.5v-.5h.5v.5Zm-48 0v.5h-.5v-.5h.5Zm48-16v-.5h.5v.5h-.5Zm-48 80v.5h-.5v-.5h.5Zm32-63.5h-16v-1h16v1Zm-16-17h16v1h-16v-1Zm16 81h-16v-1h16v1Zm-16-17h16v1h-16v-1Zm31.5-15.5v-16h1v16h-1Zm17-16v16h-1v-16h1Zm-17 0v-16h1v16h-1Zm.5-16.5c9.113 0 16.5 7.387 16.5 16.5h-1c0-8.56-6.94-15.5-15.5-15.5v-1Zm-16 48h16v1h-16v-1Zm16.5.5c0 9.113-7.387 16.5-16.5 16.5v-1c8.56 0 15.5-6.94 15.5-15.5h1ZM561 256.5h16v1h-16v-1Zm16.5.5c0 9.113-7.387 16.5-16.5 16.5v-1c8.56 0 15.5-6.94 15.5-15.5h1ZM545 273.5h-16v-1h16v1Zm-16.5-.5c0-9.113 7.387-16.5 16.5-16.5v1c-8.56 0-15.5 6.94-15.5 15.5h-1Zm16.5 64.5h-16v-1h16v1Zm-16.5-.5c0-9.113 7.387-16.5 16.5-16.5v1c-8.56 0-15.5 6.94-15.5 15.5h-1Zm48-16v-16h1v16h-1Zm17-16c0 9.113-7.387 16.5-16.5 16.5v-1c8.56 0 15.5-6.94 15.5-15.5h1Zm0-16v7.68h-1V289h1Zm0 7.68V305h-1v-8.32h1Z" class="path"/><path fill="#BFF589" d="M625 257v.5-.5Zm-16 16v-.5.5Zm16-64v-.5.5Zm0-16v-.5.5Zm-16 0v.5-.5Zm0 16v.5-.5Zm48 32h-.5.5Zm0-16h.5-.5Zm-16 32h-.5v.5h.5v-.5Zm-48 0v-.5h-.5v.5h.5Zm48 16v.5h.5v-.5h-.5Zm-48-80v-.5h-.5v.5h.5Zm32 63.5h-16v1h16v-1Zm-16 17h16v-1h-16v1Zm16-81h-16v1h16v-1Zm-16 17h16v-1h-16v1Zm31.5 15.5v16h1v-16h-1Zm17 16v-16h-1v16h1Zm-17 0v16h1v-16h-1Zm.5 16.5c9.113 0 16.5-7.387 16.5-16.5h-1c0 8.56-6.94 15.5-15.5 15.5v1Zm-16-48h16v-1h-16v1Zm16.5-.5c0-9.113-7.387-16.5-16.5-16.5v1c8.56 0 15.5 6.94 15.5 15.5h1ZM625 273.5h16v-1h-16v1Zm16.5-.5c0-9.113-7.387-16.5-16.5-16.5v1c8.56 0 15.5 6.94 15.5 15.5h1ZM609 256.5h-16v1h16v-1Zm-16.5.5c0 9.113 7.387 16.5 16.5 16.5v-1c-8.56 0-15.5-6.94-15.5-15.5h-1Zm16.5-64.5h-16v1h16v-1Zm-16.5.5c0 9.113 7.387 16.5 16.5 16.5v-1c-8.56 0-15.5-6.94-15.5-15.5h-1Zm48 16v16h1v-16h-1Zm17 16c0-9.113-7.387-16.5-16.5-16.5v1c8.56 0 15.5 6.94 15.5 15.5h1Zm0 16v-7.68h-1V241h1Zm0-7.68V225h-1v8.32h1Z" class="path"/><path fill="#BFF589" d="M689 257v.5-.5Zm-16 16v-.5.5Zm16-64v-.5.5Zm0-16v-.5.5Zm-16 0v.5-.5Zm0 16v.5-.5Zm48 32h-.5.5Zm0-16h.5-.5Zm-16 32h-.5v.5h.5v-.5Zm-48 0v-.5h-.5v.5h.5Zm48 16v.5h.5v-.5h-.5Zm-48-80v-.5h-.5v.5h.5Zm32 63.5h-16v1h16v-1Zm-16 17h16v-1h-16v1Zm16-81h-16v1h16v-1Zm-16 17h16v-1h-16v1Zm31.5 15.5v16h1v-16h-1Zm17 16v-16h-1v16h1Zm-17 0v16h1v-16h-1Zm.5 16.5c9.113 0 16.5-7.387 16.5-16.5h-1c0 8.56-6.94 15.5-15.5 15.5v1Zm-16-48h16v-1h-16v1Zm16.5-.5c0-9.113-7.387-16.5-16.5-16.5v1c8.56 0 15.5 6.94 15.5 15.5h1ZM689 273.5h16v-1h-16v1Zm16.5-.5c0-9.113-7.387-16.5-16.5-16.5v1c8.56 0 15.5 6.94 15.5 15.5h1ZM673 256.5h-16v1h16v-1Zm-16.5.5c0 9.113 7.387 16.5 16.5 16.5v-1c-8.56 0-15.5-6.94-15.5-15.5h-1Zm16.5-64.5h-16v1h16v-1Zm-16.5.5c0 9.113 7.387 16.5 16.5 16.5v-1c-8.56 0-15.5-6.94-15.5-15.5h-1Zm48 16v16h1v-16h-1Zm17 16c0-9.113-7.387-16.5-16.5-16.5v1c8.56 0 15.5 6.94 15.5 15.5h1Zm0 16v-7.68h-1V241h1Zm0-7.68V225h-1v8.32h1Z" class="path"/><path fill="#BFF589" d="M49 129v.5-.5Zm-16 16v-.5.5Zm16-64v-.5.5Zm0-16v-.5.5Zm-16 0v.5-.5Zm0 16v.5-.5Zm48 32h-.5.5Zm0-16h.5-.5ZM1 97H.5 1Zm0 16h.5H1Zm16 0h.5-.5Zm0-16h-.5.5Zm48 32h-.5v.5h.5v-.5ZM17 81h.5v-.5H17v.5Zm48 64v.5h.5v-.5H65ZM17 65v-.5h-.5v.5h.5Zm32 63.5H33v1h16v-1Zm-16 17h16v-1H33v1Zm16-81H33v1h16v-1Zm-16 17h16v-1H33v1ZM64.5 97v16h1V97h-1Zm17 16V97h-1v16h1ZM.5 97v16h1V97h-1Zm17 16V97h-1v16h1Zm47 0v16h1v-16h-1Zm.5 16.5c9.1127 0 16.5-7.387 16.5-16.5h-1c0 8.56-6.9396 15.5-15.5 15.5v1Zm-47.5-.5v-16h-1v16h1Zm-17-16c0 9.113 7.3873 16.5 16.5 16.5v-1c-8.56041 0-15.5-6.94-15.5-15.5h-1Zm17-16V81h-1v16h1ZM17 80.5C7.8873 80.5.5 87.8873.5 97h1c0-8.5604 6.93959-15.5 15.5-15.5v-1Zm32 1h16v-1H49v1Zm16.5-.5c0-9.1127-7.3873-16.5-16.5-16.5v1c8.5604 0 15.5 6.9396 15.5 15.5h1ZM49 145.5h16v-1H49v1Zm16.5-.5c0-9.113-7.3873-16.5-16.5-16.5v1c8.5604 0 15.5 6.94 15.5 15.5h1ZM33 128.5H17v1h16v-1Zm-16.5.5c0 9.113 7.3873 16.5 16.5 16.5v-1c-8.5604 0-15.5-6.94-15.5-15.5h-1ZM33 64.5H17v1h16v-1Zm-16.5.5c0 9.1127 7.3873 16.5 16.5 16.5v-1c-8.5604 0-15.5-6.9396-15.5-15.5h-1Zm48 16v16h1V81h-1Zm17 16c0-9.1127-7.3873-16.5-16.5-16.5v1c8.5604 0 15.5 6.9396 15.5 15.5h1Zm0 16v-7.68h-1V113h1Zm0-7.68V97h-1v8.32h1Z" class="path"/><path fill="#BFF589" d="M49 193v.5-.5Zm-16 16v-.5.5Zm16-64v-.5.5Zm0-16v-.5.5Zm-16 0v.5-.5Zm0 16v.5-.5Zm48 32h-.5.5Zm0-16h.5-.5Zm-80 0H.5 1Zm0 16h.5H1Zm16 0h.5-.5Zm0-16h-.5.5Zm48 32h-.5v.5h.5v-.5Zm-48-48h.5v-.5H17v.5Zm48 64v.5h.5v-.5H65Zm-48-80v-.5h-.5v.5h.5Zm32 63.5H33v1h16v-1Zm-16 17h16v-1H33v1Zm16-81H33v1h16v-1Zm-16 17h16v-1H33v1ZM64.5 161v16h1v-16h-1Zm17 16v-16h-1v16h1Zm-81-16v16h1v-16h-1Zm17 16v-16h-1v16h1Zm47 0v16h1v-16h-1Zm.5 16.5c9.1127 0 16.5-7.387 16.5-16.5h-1c0 8.56-6.9396 15.5-15.5 15.5v1Zm-47.5-.5v-16h-1v16h1Zm-17-16c0 9.113 7.3873 16.5 16.5 16.5v-1c-8.56041 0-15.5-6.94-15.5-15.5h-1Zm17-16v-16h-1v16h1Zm-.5-16.5C7.8873 144.5.5 151.887.5 161h1c0-8.56 6.93959-15.5 15.5-15.5v-1Zm32 1h16v-1H49v1Zm16.5-.5c0-9.113-7.3873-16.5-16.5-16.5v1c8.5604 0 15.5 6.94 15.5 15.5h1ZM49 209.5h16v-1H49v1Zm16.5-.5c0-9.113-7.3873-16.5-16.5-16.5v1c8.5604 0 15.5 6.94 15.5 15.5h1ZM33 192.5H17v1h16v-1Zm-16.5.5c0 9.113 7.3873 16.5 16.5 16.5v-1c-8.5604 0-15.5-6.94-15.5-15.5h-1ZM33 128.5H17v1h16v-1Zm-16.5.5c0 9.113 7.3873 16.5 16.5 16.5v-1c-8.5604 0-15.5-6.94-15.5-15.5h-1Zm48 16v16h1v-16h-1Zm17 16c0-9.113-7.3873-16.5-16.5-16.5v1c8.5604 0 15.5 6.94 15.5 15.5h1Zm0 16v-7.68h-1V177h1Zm0-7.68V161h-1v8.32h1Z" class="path"/><path fill="#BFF589" d="M49 257v.5-.5Zm-16 16v-.5.5Zm16-64v-.5.5Zm0-16v-.5.5Zm-16 0v.5-.5Zm0 16v.5-.5Zm48 32h-.5.5Zm0-16h.5-.5Zm-80 0H.5 1Zm0 16h.5H1Zm16 0h.5-.5Zm0-16h-.5.5Zm48 32h-.5v.5h.5v-.5Zm-48-48h.5v-.5H17v.5Zm48 64v.5h.5v-.5H65Zm-48-80v-.5h-.5v.5h.5Zm32 63.5H33v1h16v-1Zm-16 17h16v-1H33v1Zm16-81H33v1h16v-1Zm-16 17h16v-1H33v1ZM64.5 225v16h1v-16h-1Zm17 16v-16h-1v16h1Zm-81-16v16h1v-16h-1Zm17 16v-16h-1v16h1Zm47 0v16h1v-16h-1Zm.5 16.5c9.1127 0 16.5-7.387 16.5-16.5h-1c0 8.56-6.9396 15.5-15.5 15.5v1Zm-47.5-.5v-16h-1v16h1Zm-17-16c0 9.113 7.3873 16.5 16.5 16.5v-1c-8.56041 0-15.5-6.94-15.5-15.5h-1Zm17-16v-16h-1v16h1Zm-.5-16.5C7.8873 208.5.5 215.887.5 225h1c0-8.56 6.93959-15.5 15.5-15.5v-1Zm32 1h16v-1H49v1Zm16.5-.5c0-9.113-7.3873-16.5-16.5-16.5v1c8.5604 0 15.5 6.94 15.5 15.5h1ZM49 273.5h16v-1H49v1Zm16.5-.5c0-9.113-7.3873-16.5-16.5-16.5v1c8.5604 0 15.5 6.94 15.5 15.5h1ZM33 256.5H17v1h16v-1Zm-16.5.5c0 9.113 7.3873 16.5 16.5 16.5v-1c-8.5604 0-15.5-6.94-15.5-15.5h-1ZM33 192.5H17v1h16v-1Zm-16.5.5c0 9.113 7.3873 16.5 16.5 16.5v-1c-8.5604 0-15.5-6.94-15.5-15.5h-1Zm48 16v16h1v-16h-1Zm17 16c0-9.113-7.3873-16.5-16.5-16.5v1c8.5604 0 15.5 6.94 15.5 15.5h1Zm0 16v-7.68h-1V241h1Zm0-7.68V225h-1v8.32h1Z" class="path"/><path fill="#BFF589" d="M49 321v.5-.5Zm-16 16v-.5.5Zm16-64v-.5.5Zm0-16v-.5.5Zm-16 0v.5-.5Zm0 16v.5-.5Zm48 32h-.5.5Zm0-16h.5-.5Zm-80 0H.5 1Zm0 16h.5H1Zm16 0h.5-.5Zm0-16h-.5.5Zm48 32h-.5v.5h.5v-.5Zm-48-48h.5v-.5H17v.5Zm48 64v.5h.5v-.5H65Zm-48-80v-.5h-.5v.5h.5Zm32 63.5H33v1h16v-1Zm-16 17h16v-1H33v1Zm16-81H33v1h16v-1Zm-16 17h16v-1H33v1ZM64.5 289v16h1v-16h-1Zm17 16v-16h-1v16h1Zm-81-16v16h1v-16h-1Zm17 16v-16h-1v16h1Zm47 0v16h1v-16h-1Zm.5 16.5c9.1127 0 16.5-7.387 16.5-16.5h-1c0 8.56-6.9396 15.5-15.5 15.5v1Zm-47.5-.5v-16h-1v16h1Zm-17-16c0 9.113 7.3873 16.5 16.5 16.5v-1c-8.56041 0-15.5-6.94-15.5-15.5h-1Zm17-16v-16h-1v16h1Zm-.5-16.5C7.8873 272.5.5 279.887.5 289h1c0-8.56 6.93959-15.5 15.5-15.5v-1Zm32 1h16v-1H49v1Zm16.5-.5c0-9.113-7.3873-16.5-16.5-16.5v1c8.5604 0 15.5 6.94 15.5 15.5h1ZM49 337.5h16v-1H49v1Zm16.5-.5c0-9.113-7.3873-16.5-16.5-16.5v1c8.5604 0 15.5 6.94 15.5 15.5h1ZM33 320.5H17v1h16v-1Zm-16.5.5c0 9.113 7.3873 16.5 16.5 16.5v-1c-8.5604 0-15.5-6.94-15.5-15.5h-1ZM33 256.5H17v1h16v-1Zm-16.5.5c0 9.113 7.3873 16.5 16.5 16.5v-1c-8.5604 0-15.5-6.94-15.5-15.5h-1Zm48 16v16h1v-16h-1Zm17 16c0-9.113-7.3873-16.5-16.5-16.5v1c8.5604 0 15.5 6.94 15.5 15.5h1Zm0 16v-7.68h-1V305h1Zm0-7.68V289h-1v8.32h1Z" class="path"/><path fill="#BFF589" d="M49 385v.5-.5Zm-16 16v-.5.5Zm16-64v-.5.5Zm0-16v-.5.5Zm-16 0v.5-.5Zm0 16v.5-.5Zm48 32h-.5.5Zm0-16h.5-.5Zm-80 0H.5 1Zm0 16h.5H1Zm16 0h.5-.5Zm0-16h-.5.5Zm48 32h-.5v.5h.5v-.5Zm-48-48h.5v-.5H17v.5Zm48 64v.5h.5v-.5H65Zm-48-80v-.5h-.5v.5h.5Zm32 63.5H33v1h16v-1Zm-16 17h16v-1H33v1Zm16-81H33v1h16v-1Zm-16 17h16v-1H33v1ZM64.5 353v16h1v-16h-1Zm17 16v-16h-1v16h1Zm-81-16v16h1v-16h-1Zm17 16v-16h-1v16h1Zm47 0v16h1v-16h-1Zm.5 16.5c9.1127 0 16.5-7.387 16.5-16.5h-1c0 8.56-6.9396 15.5-15.5 15.5v1Zm-47.5-.5v-16h-1v16h1Zm-17-16c0 9.113 7.3873 16.5 16.5 16.5v-1c-8.56041 0-15.5-6.94-15.5-15.5h-1Zm17-16v-16h-1v16h1Zm-.5-16.5C7.8873 336.5.5 343.887.5 353h1c0-8.56 6.93959-15.5 15.5-15.5v-1Zm32 1h16v-1H49v1Zm16.5-.5c0-9.113-7.3873-16.5-16.5-16.5v1c8.5604 0 15.5 6.94 15.5 15.5h1ZM49 401.5h16v-1H49v1Zm16.5-.5c0-9.113-7.3873-16.5-16.5-16.5v1c8.5604 0 15.5 6.94 15.5 15.5h1ZM33 384.5H17v1h16v-1Zm-16.5.5c0 9.113 7.3873 16.5 16.5 16.5v-1c-8.5604 0-15.5-6.94-15.5-15.5h-1ZM33 320.5H17v1h16v-1Zm-16.5.5c0 9.113 7.3873 16.5 16.5 16.5v-1c-8.5604 0-15.5-6.94-15.5-15.5h-1Zm48 16v16h1v-16h-1Zm17 16c0-9.113-7.3873-16.5-16.5-16.5v1c8.5604 0 15.5 6.94 15.5 15.5h1Zm0 16v-7.68h-1V369h1Zm0-7.68V353h-1v8.32h1Z" class="path"/><path fill="#BFF589" d="M49 65v.5-.5ZM33 81v-.5.5Zm16-64v-.5.5Zm0-16V.5 1ZM33 1v.5V1Zm0 16v.5-.5Zm48 32h-.5.5Zm0-16h.5-.5ZM1 33H.5 1Zm0 16h.5H1Zm16 0h.5-.5Zm0-16h-.5.5Zm48 32h-.5v.5h.5V65ZM17 17h.5v-.5H17v.5Zm48 64v.5h.5V81H65ZM17 1V.5h-.5V1h.5Zm32 63.5H33v1h16v-1Zm-16 17h16v-1H33v1Zm16-81H33v1h16v-1Zm-16 17h16v-1H33v1ZM64.5 33v16h1V33h-1Zm17 16V33h-1v16h1ZM.5 33v16h1V33h-1Zm17 16V33h-1v16h1Zm47 0v16h1V49h-1Zm.5 16.5c9.1127 0 16.5-7.3873 16.5-16.5h-1c0 8.5604-6.9396 15.5-15.5 15.5v1ZM17.5 65V49h-1v16h1ZM.5 49c0 9.1127 7.3873 16.5 16.5 16.5v-1C8.43959 64.5 1.5 57.5604 1.5 49h-1Zm17-16V17h-1v16h1ZM17 16.5C7.8873 16.5.5 23.8873.5 33h1c0-8.5604 6.93959-15.5 15.5-15.5v-1Zm32 1h16v-1H49v1Zm16.5-.5C65.5 7.8873 58.1127.5 49 .5v1c8.5604 0 15.5 6.93959 15.5 15.5h1ZM49 81.5h16v-1H49v1Zm16.5-.5c0-9.1127-7.3873-16.5-16.5-16.5v1c8.5604 0 15.5 6.9396 15.5 15.5h1ZM33 64.5H17v1h16v-1Zm-16.5.5c0 9.1127 7.3873 16.5 16.5 16.5v-1c-8.5604 0-15.5-6.9396-15.5-15.5h-1ZM33 .5H17v1h16v-1ZM16.5 1c0 9.1127 7.3873 16.5 16.5 16.5v-1c-8.5604 0-15.5-6.93959-15.5-15.5h-1Zm48 16v16h1V17h-1Zm17 16c0-9.1127-7.3873-16.5-16.5-16.5v1c8.5604 0 15.5 6.9396 15.5 15.5h1Zm0 16v-7.68h-1V49h1Zm0-7.68V33h-1v8.32h1Z" class="path"/><path fill="#BFF589" d="M241 193v.5-.5Zm-16 16v-.5.5Zm16-64v-.5.5Zm0-16v-.5.5Zm-16 0v.5-.5Zm0 16v.5-.5Zm48 32h-.5.5Zm0-16h.5-.5Zm-16 32h-.5v.5h.5v-.5Zm-48 0v-.5h-.5v.5h.5Zm48 16v.5h.5v-.5h-.5Zm-48-80v-.5h-.5v.5h.5Zm32 63.5h-16v1h16v-1Zm-16 17h16v-1h-16v1Zm16-81h-16v1h16v-1Zm-16 17h16v-1h-16v1Zm31.5 15.5v16h1v-16h-1Zm17 16v-16h-1v16h1Zm-17 0v16h1v-16h-1Zm.5 16.5c9.113 0 16.5-7.387 16.5-16.5h-1c0 8.56-6.94 15.5-15.5 15.5v1Zm-16-48h16v-1h-16v1Zm16.5-.5c0-9.113-7.387-16.5-16.5-16.5v1c8.56 0 15.5 6.94 15.5 15.5h1ZM241 209.5h16v-1h-16v1Zm16.5-.5c0-9.113-7.387-16.5-16.5-16.5v1c8.56 0 15.5 6.94 15.5 15.5h1ZM225 192.5h-16v1h16v-1Zm-16.5.5c0 9.113 7.387 16.5 16.5 16.5v-1c-8.56 0-15.5-6.94-15.5-15.5h-1Zm16.5-64.5h-16v1h16v-1Zm-16.5.5c0 9.113 7.387 16.5 16.5 16.5v-1c-8.56 0-15.5-6.94-15.5-15.5h-1Zm48 16v16h1v-16h-1Zm17 16c0-9.113-7.387-16.5-16.5-16.5v1c8.56 0 15.5 6.94 15.5 15.5h1Zm0 16v-7.68h-1V177h1Zm0-7.68V161h-1v8.32h1Z" class="path"/><path fill="#BFF589" d="M177 193v.5-.5Zm-16 16v-.5.5Zm16-64v-.5.5Zm0-16v-.5.5Zm-16 0v.5-.5Zm0 16v.5-.5Zm48 32h-.5.5Zm0-16h.5-.5Zm-16 32h-.5v.5h.5v-.5Zm-48 0v-.5h-.5v.5h.5Zm48 16v.5h.5v-.5h-.5Zm-48-80v-.5h-.5v.5h.5Zm32 63.5h-16v1h16v-1Zm-16 17h16v-1h-16v1Zm16-81h-16v1h16v-1Zm-16 17h16v-1h-16v1Zm31.5 15.5v16h1v-16h-1Zm17 16v-16h-1v16h1Zm-17 0v16h1v-16h-1Zm.5 16.5c9.113 0 16.5-7.387 16.5-16.5h-1c0 8.56-6.94 15.5-15.5 15.5v1Zm-16-48h16v-1h-16v1Zm16.5-.5c0-9.113-7.387-16.5-16.5-16.5v1c8.56 0 15.5 6.94 15.5 15.5h1ZM177 209.5h16v-1h-16v1Zm16.5-.5c0-9.113-7.387-16.5-16.5-16.5v1c8.56 0 15.5 6.94 15.5 15.5h1ZM161 192.5h-16v1h16v-1Zm-16.5.5c0 9.113 7.387 16.5 16.5 16.5v-1c-8.56 0-15.5-6.94-15.5-15.5h-1Zm16.5-64.5h-16v1h16v-1Zm-16.5.5c0 9.113 7.387 16.5 16.5 16.5v-1c-8.56 0-15.5-6.94-15.5-15.5h-1Zm48 16v16h1v-16h-1Zm17 16c0-9.113-7.387-16.5-16.5-16.5v1c8.56 0 15.5 6.94 15.5 15.5h1Zm0 16v-7.68h-1V177h1Zm0-7.68V161h-1v8.32h1Z" class="path"/><path fill="#BFF589" d="M113 193v.5-.5Zm-16 16v-.5.5Zm16-64v-.5.5Zm0-16v-.5.5Zm-16 0v.5-.5Zm0 16v.5-.5Zm48 32h-.5.5Zm0-16h.5-.5Zm-16 32h-.5v.5h.5v-.5Zm-48 0v-.5h-.5v.5h.5Zm48 16v.5h.5v-.5h-.5Zm-48-80v-.5h-.5v.5h.5Zm32 63.5H97v1h16v-1Zm-16 17h16v-1H97v1Zm16-81H97v1h16v-1Zm-16 17h16v-1H97v1Zm31.5 15.5v16h1v-16h-1Zm17 16v-16h-1v16h1Zm-17 0v16h1v-16h-1Zm.5 16.5c9.113 0 16.5-7.387 16.5-16.5h-1c0 8.56-6.94 15.5-15.5 15.5v1Zm-16-48h16v-1h-16v1Zm16.5-.5c0-9.113-7.387-16.5-16.5-16.5v1c8.56 0 15.5 6.94 15.5 15.5h1ZM113 209.5h16v-1h-16v1Zm16.5-.5c0-9.113-7.387-16.5-16.5-16.5v1c8.56 0 15.5 6.94 15.5 15.5h1ZM97 192.5H81v1h16v-1Zm-16.5.5c0 9.113 7.3873 16.5 16.5 16.5v-1c-8.5604 0-15.5-6.94-15.5-15.5h-1ZM97 128.5H81v1h16v-1Zm-16.5.5c0 9.113 7.3873 16.5 16.5 16.5v-1c-8.5604 0-15.5-6.94-15.5-15.5h-1Zm48 16v16h1v-16h-1Zm17 16c0-9.113-7.387-16.5-16.5-16.5v1c8.56 0 15.5 6.94 15.5 15.5h1Zm0 16v-7.68h-1V177h1Zm0-7.68V161h-1v8.32h1Z" class="path"/><path fill="#BFF589" d="M305 193v.5-.5Zm-16 16v-.5.5Zm16-64v-.5.5Zm0-16v-.5.5Zm-16 0v.5-.5Zm0 16v.5-.5Zm48 32h-.5.5Zm0-16h.5-.5Zm-16 32h-.5v.5h.5v-.5Zm-48 0v-.5h-.5v.5h.5Zm48 16v.5h.5v-.5h-.5Zm-48-80v-.5h-.5v.5h.5Zm32 63.5h-16v1h16v-1Zm-16 17h16v-1h-16v1Zm16-81h-16v1h16v-1Zm-16 17h16v-1h-16v1Zm31.5 15.5v16h1v-16h-1Zm17 16v-16h-1v16h1Zm-17 0v16h1v-16h-1Zm.5 16.5c9.113 0 16.5-7.387 16.5-16.5h-1c0 8.56-6.94 15.5-15.5 15.5v1Zm-16-48h16v-1h-16v1Zm16.5-.5c0-9.113-7.387-16.5-16.5-16.5v1c8.56 0 15.5 6.94 15.5 15.5h1ZM305 209.5h16v-1h-16v1Zm16.5-.5c0-9.113-7.387-16.5-16.5-16.5v1c8.56 0 15.5 6.94 15.5 15.5h1ZM289 192.5h-16v1h16v-1Zm-16.5.5c0 9.113 7.387 16.5 16.5 16.5v-1c-8.56 0-15.5-6.94-15.5-15.5h-1Zm16.5-64.5h-16v1h16v-1Zm-16.5.5c0 9.113 7.387 16.5 16.5 16.5v-1c-8.56 0-15.5-6.94-15.5-15.5h-1Zm48 16v16h1v-16h-1Zm17 16c0-9.113-7.387-16.5-16.5-16.5v1c8.56 0 15.5 6.94 15.5 15.5h1Zm0 16v-7.68h-1V177h1Zm0-7.68V161h-1v8.32h1Z" class="path"/><path fill="#BFF589" d="M305 257v.5-.5Zm-16 16v-.5.5Zm16-64v-.5.5Zm0-16v-.5.5Zm-16 0v.5-.5Zm0 16v.5-.5Zm48 32h-.5.5Zm0-16h.5-.5Zm-16 32h-.5v.5h.5v-.5Zm-48 0v-.5h-.5v.5h.5Zm48 16v.5h.5v-.5h-.5Zm-48-80v-.5h-.5v.5h.5Zm32 63.5h-16v1h16v-1Zm-16 17h16v-1h-16v1Zm16-81h-16v1h16v-1Zm-16 17h16v-1h-16v1Zm31.5 15.5v16h1v-16h-1Zm17 16v-16h-1v16h1Zm-17 0v16h1v-16h-1Zm.5 16.5c9.113 0 16.5-7.387 16.5-16.5h-1c0 8.56-6.94 15.5-15.5 15.5v1Zm-16-48h16v-1h-16v1Zm16.5-.5c0-9.113-7.387-16.5-16.5-16.5v1c8.56 0 15.5 6.94 15.5 15.5h1ZM305 273.5h16v-1h-16v1Zm16.5-.5c0-9.113-7.387-16.5-16.5-16.5v1c8.56 0 15.5 6.94 15.5 15.5h1ZM289 256.5h-16v1h16v-1Zm-16.5.5c0 9.113 7.387 16.5 16.5 16.5v-1c-8.56 0-15.5-6.94-15.5-15.5h-1Zm16.5-64.5h-16v1h16v-1Zm-16.5.5c0 9.113 7.387 16.5 16.5 16.5v-1c-8.56 0-15.5-6.94-15.5-15.5h-1Zm48 16v16h1v-16h-1Zm17 16c0-9.113-7.387-16.5-16.5-16.5v1c8.56 0 15.5 6.94 15.5 15.5h1Zm0 16v-7.68h-1V241h1Zm0-7.68V225h-1v8.32h1Z" class="path"/><path fill="#BFF589" d="M369 193v.5-.5Zm-16 16v-.5.5Zm16-64v-.5.5Zm0-16v-.5.5Zm-16 0v.5-.5Zm0 16v.5-.5Zm48 32h-.5.5Zm0-16h.5-.5Zm-16 32h-.5v.5h.5v-.5Zm-48 0v-.5h-.5v.5h.5Zm48 16v.5h.5v-.5h-.5Zm-48-80v-.5h-.5v.5h.5Zm32 63.5h-16v1h16v-1Zm-16 17h16v-1h-16v1Zm16-81h-16v1h16v-1Zm-16 17h16v-1h-16v1Zm31.5 15.5v16h1v-16h-1Zm17 16v-16h-1v16h1Zm-17 0v16h1v-16h-1Zm.5 16.5c9.113 0 16.5-7.387 16.5-16.5h-1c0 8.56-6.94 15.5-15.5 15.5v1Zm-16-48h16v-1h-16v1Zm16.5-.5c0-9.113-7.387-16.5-16.5-16.5v1c8.56 0 15.5 6.94 15.5 15.5h1ZM369 209.5h16v-1h-16v1Zm16.5-.5c0-9.113-7.387-16.5-16.5-16.5v1c8.56 0 15.5 6.94 15.5 15.5h1ZM353 192.5h-16v1h16v-1Zm-16.5.5c0 9.113 7.387 16.5 16.5 16.5v-1c-8.56 0-15.5-6.94-15.5-15.5h-1Zm16.5-64.5h-16v1h16v-1Zm-16.5.5c0 9.113 7.387 16.5 16.5 16.5v-1c-8.56 0-15.5-6.94-15.5-15.5h-1Zm48 16v16h1v-16h-1Zm17 16c0-9.113-7.387-16.5-16.5-16.5v1c8.56 0 15.5 6.94 15.5 15.5h1Zm0 16v-7.68h-1V177h1Zm0-7.68V161h-1v8.32h1Z" class="path"/><path fill="#BFF589" d="M433 193v.5-.5Zm-16 16v-.5.5Zm16-64v-.5.5Zm0-16v-.5.5Zm-16 0v.5-.5Zm0 16v.5-.5Zm48 32h-.5.5Zm0-16h.5-.5Zm-16 32h-.5v.5h.5v-.5Zm-48 0v-.5h-.5v.5h.5Zm48 16v.5h.5v-.5h-.5Zm-48-80v-.5h-.5v.5h.5Zm32 63.5h-16v1h16v-1Zm-16 17h16v-1h-16v1Zm16-81h-16v1h16v-1Zm-16 17h16v-1h-16v1Zm31.5 15.5v16h1v-16h-1Zm17 16v-16h-1v16h1Zm-17 0v16h1v-16h-1Zm.5 16.5c9.113 0 16.5-7.387 16.5-16.5h-1c0 8.56-6.94 15.5-15.5 15.5v1Zm-16-48h16v-1h-16v1Zm16.5-.5c0-9.113-7.387-16.5-16.5-16.5v1c8.56 0 15.5 6.94 15.5 15.5h1ZM433 209.5h16v-1h-16v1Zm16.5-.5c0-9.113-7.387-16.5-16.5-16.5v1c8.56 0 15.5 6.94 15.5 15.5h1ZM417 192.5h-16v1h16v-1Zm-16.5.5c0 9.113 7.387 16.5 16.5 16.5v-1c-8.56 0-15.5-6.94-15.5-15.5h-1Zm16.5-64.5h-16v1h16v-1Zm-16.5.5c0 9.113 7.387 16.5 16.5 16.5v-1c-8.56 0-15.5-6.94-15.5-15.5h-1Zm48 16v16h1v-16h-1Zm17 16c0-9.113-7.387-16.5-16.5-16.5v1c8.56 0 15.5 6.94 15.5 15.5h1Zm0 16v-7.68h-1V177h1Zm0-7.68V161h-1v8.32h1Z" class="path"/><path fill="#BFF589" d="M497 193v.5-.5Zm-16 16v-.5.5Zm16-64v-.5.5Zm0-16v-.5.5Zm-16 0v.5-.5Zm0 16v.5-.5Zm48 32h-.5.5Zm0-16h.5-.5Zm-16 32h-.5v.5h.5v-.5Zm-48 0v-.5h-.5v.5h.5Zm48 16v.5h.5v-.5h-.5Zm-48-80v-.5h-.5v.5h.5Zm32 63.5h-16v1h16v-1Zm-16 17h16v-1h-16v1Zm16-81h-16v1h16v-1Zm-16 17h16v-1h-16v1Zm31.5 15.5v16h1v-16h-1Zm17 16v-16h-1v16h1Zm-17 0v16h1v-16h-1Zm.5 16.5c9.113 0 16.5-7.387 16.5-16.5h-1c0 8.56-6.94 15.5-15.5 15.5v1Zm-16-48h16v-1h-16v1Zm16.5-.5c0-9.113-7.387-16.5-16.5-16.5v1c8.56 0 15.5 6.94 15.5 15.5h1ZM497 209.5h16v-1h-16v1Zm16.5-.5c0-9.113-7.387-16.5-16.5-16.5v1c8.56 0 15.5 6.94 15.5 15.5h1ZM481 192.5h-16v1h16v-1Zm-16.5.5c0 9.113 7.387 16.5 16.5 16.5v-1c-8.56 0-15.5-6.94-15.5-15.5h-1Zm16.5-64.5h-16v1h16v-1Zm-16.5.5c0 9.113 7.387 16.5 16.5 16.5v-1c-8.56 0-15.5-6.94-15.5-15.5h-1Zm48 16v16h1v-16h-1Zm17 16c0-9.113-7.387-16.5-16.5-16.5v1c8.56 0 15.5 6.94 15.5 15.5h1Zm0 16v-7.68h-1V177h1Zm0-7.68V161h-1v8.32h1Z" class="path"/><path fill="#BFF589" d="M561 337v-.5.5Zm-16-16v.5-.5Zm16 64v.5-.5Zm0 16v.5-.5Zm-16 0v-.5.5Zm0-16v-.5.5Zm48-32h-.5.5Zm0 16h.5-.5Zm-16-32h-.5v-.5h.5v.5Zm-48 0v.5h-.5v-.5h.5Zm48-16v-.5h.5v.5h-.5Zm-48 80v.5h-.5v-.5h.5Zm32-63.5h-16v-1h16v1Zm-16-17h16v1h-16v-1Zm16 81h-16v-1h16v1Zm-16-17h16v1h-16v-1Zm31.5-15.5v-16h1v16h-1Zm17-16v16h-1v-16h1Zm-17 0v-16h1v16h-1Zm.5-16.5c9.113 0 16.5 7.387 16.5 16.5h-1c0-8.56-6.94-15.5-15.5-15.5v-1Zm-16 48h16v1h-16v-1Zm16.5.5c0 9.113-7.387 16.5-16.5 16.5v-1c8.56 0 15.5-6.94 15.5-15.5h1ZM561 320.5h16v1h-16v-1Zm16.5.5c0 9.113-7.387 16.5-16.5 16.5v-1c8.56 0 15.5-6.94 15.5-15.5h1ZM545 337.5h-16v-1h16v1Zm-16.5-.5c0-9.113 7.387-16.5 16.5-16.5v1c-8.56 0-15.5 6.94-15.5 15.5h-1Zm16.5 64.5h-16v-1h16v1Zm-16.5-.5c0-9.113 7.387-16.5 16.5-16.5v1c-8.56 0-15.5 6.94-15.5 15.5h-1Zm48-16v-16h1v16h-1Zm17-16c0 9.113-7.387 16.5-16.5 16.5v-1c8.56 0 15.5-6.94 15.5-15.5h1Zm0-16v7.68h-1V353h1Zm0 7.68V369h-1v-8.32h1Z" class="path"/><path fill="#BFF589" d="M625 193v.5-.5Zm-16 16v-.5.5Zm16-64v-.5.5Zm0-16v-.5.5Zm-16 0v.5-.5Zm0 16v.5-.5Zm48 32h-.5.5Zm0-16h.5-.5Zm-16 32h-.5v.5h.5v-.5Zm-48 0v-.5h-.5v.5h.5Zm48 16v.5h.5v-.5h-.5Zm-48-80v-.5h-.5v.5h.5Zm32 63.5h-16v1h16v-1Zm-16 17h16v-1h-16v1Zm16-81h-16v1h16v-1Zm-16 17h16v-1h-16v1Zm31.5 15.5v16h1v-16h-1Zm17 16v-16h-1v16h1Zm-17 0v16h1v-16h-1Zm.5 16.5c9.113 0 16.5-7.387 16.5-16.5h-1c0 8.56-6.94 15.5-15.5 15.5v1Zm-16-48h16v-1h-16v1Zm16.5-.5c0-9.113-7.387-16.5-16.5-16.5v1c8.56 0 15.5 6.94 15.5 15.5h1ZM625 209.5h16v-1h-16v1Zm16.5-.5c0-9.113-7.387-16.5-16.5-16.5v1c8.56 0 15.5 6.94 15.5 15.5h1ZM609 192.5h-16v1h16v-1Zm-16.5.5c0 9.113 7.387 16.5 16.5 16.5v-1c-8.56 0-15.5-6.94-15.5-15.5h-1Zm16.5-64.5h-16v1h16v-1Zm-16.5.5c0 9.113 7.387 16.5 16.5 16.5v-1c-8.56 0-15.5-6.94-15.5-15.5h-1Zm48 16v16h1v-16h-1Zm17 16c0-9.113-7.387-16.5-16.5-16.5v1c8.56 0 15.5 6.94 15.5 15.5h1Zm0 16v-7.68h-1V177h1Zm0-7.68V161h-1v8.32h1Z" class="path"/><path fill="#BFF589" d="M241 129v.5-.5Zm-16 16v-.5.5Zm16-64v-.5.5Zm0-16v-.5.5Zm-16 0v.5-.5Zm0 16v.5-.5Zm48 32h-.5.5Zm0-16h.5-.5Zm-16 32h-.5v.5h.5v-.5Zm-48 0v-.5h-.5v.5h.5Zm48 16v.5h.5v-.5h-.5Zm-48-80v-.5h-.5v.5h.5Zm32 63.5h-16v1h16v-1Zm-16 17h16v-1h-16v1Zm16-81h-16v1h16v-1Zm-16 17h16v-1h-16v1ZM256.5 97v16h1V97h-1Zm17 16V97h-1v16h1Zm-17 0v16h1v-16h-1Zm.5 16.5c9.113 0 16.5-7.387 16.5-16.5h-1c0 8.56-6.94 15.5-15.5 15.5v1Zm-16-48h16v-1h-16v1Zm16.5-.5c0-9.1127-7.387-16.5-16.5-16.5v1c8.56 0 15.5 6.9396 15.5 15.5h1ZM241 145.5h16v-1h-16v1Zm16.5-.5c0-9.113-7.387-16.5-16.5-16.5v1c8.56 0 15.5 6.94 15.5 15.5h1ZM225 128.5h-16v1h16v-1Zm-16.5.5c0 9.113 7.387 16.5 16.5 16.5v-1c-8.56 0-15.5-6.94-15.5-15.5h-1ZM225 64.5h-16v1h16v-1Zm-16.5.5c0 9.1127 7.387 16.5 16.5 16.5v-1c-8.56 0-15.5-6.9396-15.5-15.5h-1Zm48 16v16h1V81h-1Zm17 16c0-9.1127-7.387-16.5-16.5-16.5v1c8.56 0 15.5 6.9396 15.5 15.5h1Zm0 16v-7.68h-1V113h1Zm0-7.68V97h-1v8.32h1Z" class="path"/><path fill="#BFF589" d="M241 65v.5-.5Zm-16 16v-.5.5Zm16-64v-.5.5Zm0-16V.5 1Zm-16 0v.5V1Zm0 16v.5-.5Zm48 32h-.5.5Zm0-16h.5-.5Zm-16 32h-.5v.5h.5V65Zm-48 0v-.5h-.5v.5h.5Zm48 16v.5h.5V81h-.5ZM209 1V.5h-.5V1h.5Zm32 63.5h-16v1h16v-1Zm-16 17h16v-1h-16v1Zm16-81h-16v1h16v-1Zm-16 17h16v-1h-16v1ZM256.5 33v16h1V33h-1Zm17 16V33h-1v16h1Zm-17 0v16h1V49h-1Zm.5 16.5c9.113 0 16.5-7.3873 16.5-16.5h-1c0 8.5604-6.94 15.5-15.5 15.5v1Zm-16-48h16v-1h-16v1Zm16.5-.5c0-9.1127-7.387-16.5-16.5-16.5v1c8.56 0 15.5 6.93959 15.5 15.5h1ZM241 81.5h16v-1h-16v1Zm16.5-.5c0-9.1127-7.387-16.5-16.5-16.5v1c8.56 0 15.5 6.9396 15.5 15.5h1ZM225 64.5h-16v1h16v-1Zm-16.5.5c0 9.1127 7.387 16.5 16.5 16.5v-1c-8.56 0-15.5-6.9396-15.5-15.5h-1ZM225 .5h-16v1h16v-1Zm-16.5.5c0 9.1127 7.387 16.5 16.5 16.5v-1c-8.56 0-15.5-6.93959-15.5-15.5h-1Zm48 16v16h1V17h-1Zm17 16c0-9.1127-7.387-16.5-16.5-16.5v1c8.56 0 15.5 6.9396 15.5 15.5h1Zm0 16v-7.68h-1V49h1Zm0-7.68V33h-1v8.32h1Z" class="path"/><path fill="#BFF589" d="M689 193v.5-.5Zm-16 16v-.5.5Zm16-64v-.5.5Zm0-16v-.5.5Zm-16 0v.5-.5Zm0 16v.5-.5Zm48 32h-.5.5Zm0-16h.5-.5Zm-16 32h-.5v.5h.5v-.5Zm-48 0v-.5h-.5v.5h.5Zm48 16v.5h.5v-.5h-.5Zm-48-80v-.5h-.5v.5h.5Zm32 63.5h-16v1h16v-1Zm-16 17h16v-1h-16v1Zm16-81h-16v1h16v-1Zm-16 17h16v-1h-16v1Zm31.5 15.5v16h1v-16h-1Zm17 16v-16h-1v16h1Zm-17 0v16h1v-16h-1Zm.5 16.5c9.113 0 16.5-7.387 16.5-16.5h-1c0 8.56-6.94 15.5-15.5 15.5v1Zm-16-48h16v-1h-16v1Zm16.5-.5c0-9.113-7.387-16.5-16.5-16.5v1c8.56 0 15.5 6.94 15.5 15.5h1ZM689 209.5h16v-1h-16v1Zm16.5-.5c0-9.113-7.387-16.5-16.5-16.5v1c8.56 0 15.5 6.94 15.5 15.5h1ZM673 192.5h-16v1h16v-1Zm-16.5.5c0 9.113 7.387 16.5 16.5 16.5v-1c-8.56 0-15.5-6.94-15.5-15.5h-1Zm16.5-64.5h-16v1h16v-1Zm-16.5.5c0 9.113 7.387 16.5 16.5 16.5v-1c-8.56 0-15.5-6.94-15.5-15.5h-1Zm48 16v16h1v-16h-1Zm17 16c0-9.113-7.387-16.5-16.5-16.5v1c8.56 0 15.5 6.94 15.5 15.5h1Zm0 16v-7.68h-1V177h1Zm0-7.68V161h-1v8.32h1Z" class="path"/><path fill="#BFF589" d="M177 129v.5-.5Zm-16 16v-.5.5Zm16-64v-.5.5Zm0-16v-.5.5Zm-16 0v.5-.5Zm0 16v.5-.5Zm48 32h-.5.5Zm0-16h.5-.5Zm-16 32h-.5v.5h.5v-.5Zm-48 0v-.5h-.5v.5h.5Zm48 16v.5h.5v-.5h-.5Zm-48-80v-.5h-.5v.5h.5Zm32 63.5h-16v1h16v-1Zm-16 17h16v-1h-16v1Zm16-81h-16v1h16v-1Zm-16 17h16v-1h-16v1ZM192.5 97v16h1V97h-1Zm17 16V97h-1v16h1Zm-17 0v16h1v-16h-1Zm.5 16.5c9.113 0 16.5-7.387 16.5-16.5h-1c0 8.56-6.94 15.5-15.5 15.5v1Zm-16-48h16v-1h-16v1Zm16.5-.5c0-9.1127-7.387-16.5-16.5-16.5v1c8.56 0 15.5 6.9396 15.5 15.5h1ZM177 145.5h16v-1h-16v1Zm16.5-.5c0-9.113-7.387-16.5-16.5-16.5v1c8.56 0 15.5 6.94 15.5 15.5h1ZM161 128.5h-16v1h16v-1Zm-16.5.5c0 9.113 7.387 16.5 16.5 16.5v-1c-8.56 0-15.5-6.94-15.5-15.5h-1ZM161 64.5h-16v1h16v-1Zm-16.5.5c0 9.1127 7.387 16.5 16.5 16.5v-1c-8.56 0-15.5-6.9396-15.5-15.5h-1Zm48 16v16h1V81h-1Zm17 16c0-9.1127-7.387-16.5-16.5-16.5v1c8.56 0 15.5 6.9396 15.5 15.5h1Zm0 16v-7.68h-1V113h1Zm0-7.68V97h-1v8.32h1Z" class="path"/><path fill="#BFF589" d="M113 129v.5-.5Zm-16 16v-.5.5Zm16-64v-.5.5Zm0-16v-.5.5Zm-16 0v.5-.5Zm0 16v.5-.5Zm48 32h-.5.5Zm0-16h.5-.5Zm-16 32h-.5v.5h.5v-.5Zm-48 0v-.5h-.5v.5h.5Zm48 16v.5h.5v-.5h-.5ZM81 65v-.5h-.5v.5h.5Zm32 63.5H97v1h16v-1Zm-16 17h16v-1H97v1Zm16-81H97v1h16v-1Zm-16 17h16v-1H97v1ZM128.5 97v16h1V97h-1Zm17 16V97h-1v16h1Zm-17 0v16h1v-16h-1Zm.5 16.5c9.113 0 16.5-7.387 16.5-16.5h-1c0 8.56-6.94 15.5-15.5 15.5v1Zm-16-48h16v-1h-16v1Zm16.5-.5c0-9.1127-7.387-16.5-16.5-16.5v1c8.56 0 15.5 6.9396 15.5 15.5h1ZM113 145.5h16v-1h-16v1Zm16.5-.5c0-9.113-7.387-16.5-16.5-16.5v1c8.56 0 15.5 6.94 15.5 15.5h1ZM97 128.5H81v1h16v-1Zm-16.5.5c0 9.113 7.3873 16.5 16.5 16.5v-1c-8.5604 0-15.5-6.94-15.5-15.5h-1ZM97 64.5H81v1h16v-1Zm-16.5.5c0 9.1127 7.3873 16.5 16.5 16.5v-1c-8.5604 0-15.5-6.9396-15.5-15.5h-1Zm48 16v16h1V81h-1Zm17 16c0-9.1127-7.387-16.5-16.5-16.5v1c8.56 0 15.5 6.9396 15.5 15.5h1Zm0 16v-7.68h-1V113h1Zm0-7.68V97h-1v8.32h1Z" class="path"/><path fill="#BFF589" d="M177 65v.5-.5Zm-16 16v-.5.5Zm16-64v-.5.5Zm0-16V.5 1Zm-16 0v.5V1Zm0 16v.5-.5Zm48 32h-.5.5Zm0-16h.5-.5Zm-16 32h-.5v.5h.5V65Zm-48 0v-.5h-.5v.5h.5Zm48 16v.5h.5V81h-.5ZM145 1V.5h-.5V1h.5Zm32 63.5h-16v1h16v-1Zm-16 17h16v-1h-16v1Zm16-81h-16v1h16v-1Zm-16 17h16v-1h-16v1ZM192.5 33v16h1V33h-1Zm17 16V33h-1v16h1Zm-17 0v16h1V49h-1Zm.5 16.5c9.113 0 16.5-7.3873 16.5-16.5h-1c0 8.5604-6.94 15.5-15.5 15.5v1Zm-16-48h16v-1h-16v1Zm16.5-.5c0-9.1127-7.387-16.5-16.5-16.5v1c8.56 0 15.5 6.93959 15.5 15.5h1ZM177 81.5h16v-1h-16v1Zm16.5-.5c0-9.1127-7.387-16.5-16.5-16.5v1c8.56 0 15.5 6.9396 15.5 15.5h1ZM161 64.5h-16v1h16v-1Zm-16.5.5c0 9.1127 7.387 16.5 16.5 16.5v-1c-8.56 0-15.5-6.9396-15.5-15.5h-1ZM161 .5h-16v1h16v-1Zm-16.5.5c0 9.1127 7.387 16.5 16.5 16.5v-1c-8.56 0-15.5-6.93959-15.5-15.5h-1Zm48 16v16h1V17h-1Zm17 16c0-9.1127-7.387-16.5-16.5-16.5v1c8.56 0 15.5 6.9396 15.5 15.5h1Zm0 16v-7.68h-1V49h1Zm0-7.68V33h-1v8.32h1Z" class="path"/><path fill="#BFF589" d="M113 65v.5-.5ZM97 81v-.5.5Zm16-64v-.5.5Zm0-16V.5 1ZM97 1v.5V1Zm0 16v.5-.5Zm48 32h-.5.5Zm0-16h.5-.5Zm-16 32h-.5v.5h.5V65Zm-48 0v-.5h-.5v.5h.5Zm48 16v.5h.5V81h-.5ZM81 1V.5h-.5V1h.5Zm32 63.5H97v1h16v-1Zm-16 17h16v-1H97v1Zm16-81H97v1h16v-1Zm-16 17h16v-1H97v1ZM128.5 33v16h1V33h-1Zm17 16V33h-1v16h1Zm-17 0v16h1V49h-1Zm.5 16.5c9.113 0 16.5-7.3873 16.5-16.5h-1c0 8.5604-6.94 15.5-15.5 15.5v1Zm-16-48h16v-1h-16v1Zm16.5-.5c0-9.1127-7.387-16.5-16.5-16.5v1c8.56 0 15.5 6.93959 15.5 15.5h1ZM113 81.5h16v-1h-16v1Zm16.5-.5c0-9.1127-7.387-16.5-16.5-16.5v1c8.56 0 15.5 6.9396 15.5 15.5h1ZM97 64.5H81v1h16v-1Zm-16.5.5c0 9.1127 7.3873 16.5 16.5 16.5v-1c-8.5604 0-15.5-6.9396-15.5-15.5h-1ZM97 .5H81v1h16v-1ZM80.5 1c0 9.1127 7.3873 16.5 16.5 16.5v-1c-8.5604 0-15.5-6.93959-15.5-15.5h-1Zm48 16v16h1V17h-1Zm17 16c0-9.1127-7.387-16.5-16.5-16.5v1c8.56 0 15.5 6.9396 15.5 15.5h1Zm0 16v-7.68h-1V49h1Zm0-7.68V33h-1v8.32h1Z" class="path"/><path fill="#BFF589" d="M305 129v.5-.5Zm-16 16v-.5.5Zm16-64v-.5.5Zm0-16v-.5.5Zm-16 0v.5-.5Zm0 16v.5-.5Zm48 32h-.5.5Zm0-16h.5-.5Zm-16 32h-.5v.5h.5v-.5Zm-48 0v-.5h-.5v.5h.5Zm48 16v.5h.5v-.5h-.5Zm-48-80v-.5h-.5v.5h.5Zm32 63.5h-16v1h16v-1Zm-16 17h16v-1h-16v1Zm16-81h-16v1h16v-1Zm-16 17h16v-1h-16v1ZM320.5 97v16h1V97h-1Zm17 16V97h-1v16h1Zm-17 0v16h1v-16h-1Zm.5 16.5c9.113 0 16.5-7.387 16.5-16.5h-1c0 8.56-6.94 15.5-15.5 15.5v1Zm-16-48h16v-1h-16v1Zm16.5-.5c0-9.1127-7.387-16.5-16.5-16.5v1c8.56 0 15.5 6.9396 15.5 15.5h1ZM305 145.5h16v-1h-16v1Zm16.5-.5c0-9.113-7.387-16.5-16.5-16.5v1c8.56 0 15.5 6.94 15.5 15.5h1ZM289 128.5h-16v1h16v-1Zm-16.5.5c0 9.113 7.387 16.5 16.5 16.5v-1c-8.56 0-15.5-6.94-15.5-15.5h-1ZM289 64.5h-16v1h16v-1Zm-16.5.5c0 9.1127 7.387 16.5 16.5 16.5v-1c-8.56 0-15.5-6.9396-15.5-15.5h-1Zm48 16v16h1V81h-1Zm17 16c0-9.1127-7.387-16.5-16.5-16.5v1c8.56 0 15.5 6.9396 15.5 15.5h1Zm0 16v-7.68h-1V113h1Zm0-7.68V97h-1v8.32h1Z" class="path"/><path fill="#BFF589" d="M305 65v.5-.5Zm-16 16v-.5.5Zm16-64v-.5.5Zm0-16V.5 1Zm-16 0v.5V1Zm0 16v.5-.5Zm48 32h-.5.5Zm0-16h.5-.5Zm-16 32h-.5v.5h.5V65Zm-48 0v-.5h-.5v.5h.5Zm48 16v.5h.5V81h-.5ZM273 1V.5h-.5V1h.5Zm32 63.5h-16v1h16v-1Zm-16 17h16v-1h-16v1Zm16-81h-16v1h16v-1Zm-16 17h16v-1h-16v1ZM320.5 33v16h1V33h-1Zm17 16V33h-1v16h1Zm-17 0v16h1V49h-1Zm.5 16.5c9.113 0 16.5-7.3873 16.5-16.5h-1c0 8.5604-6.94 15.5-15.5 15.5v1Zm-16-48h16v-1h-16v1Zm16.5-.5c0-9.1127-7.387-16.5-16.5-16.5v1c8.56 0 15.5 6.93959 15.5 15.5h1ZM305 81.5h16v-1h-16v1Zm16.5-.5c0-9.1127-7.387-16.5-16.5-16.5v1c8.56 0 15.5 6.9396 15.5 15.5h1ZM289 64.5h-16v1h16v-1Zm-16.5.5c0 9.1127 7.387 16.5 16.5 16.5v-1c-8.56 0-15.5-6.9396-15.5-15.5h-1ZM289 .5h-16v1h16v-1Zm-16.5.5c0 9.1127 7.387 16.5 16.5 16.5v-1c-8.56 0-15.5-6.93959-15.5-15.5h-1Zm48 16v16h1V17h-1Zm17 16c0-9.1127-7.387-16.5-16.5-16.5v1c8.56 0 15.5 6.9396 15.5 15.5h1Zm0 16v-7.68h-1V49h1Zm0-7.68V33h-1v8.32h1Z" class="path"/><path fill="#BFF589" d="M369 129v.5-.5Zm-16 16v-.5.5Zm16-64v-.5.5Zm0-16v-.5.5Zm-16 0v.5-.5Zm0 16v.5-.5Zm48 32h-.5.5Zm0-16h.5-.5Zm-16 32h-.5v.5h.5v-.5Zm-48 0v-.5h-.5v.5h.5Zm48 16v.5h.5v-.5h-.5Zm-48-80v-.5h-.5v.5h.5Zm32 63.5h-16v1h16v-1Zm-16 17h16v-1h-16v1Zm16-81h-16v1h16v-1Zm-16 17h16v-1h-16v1ZM384.5 97v16h1V97h-1Zm17 16V97h-1v16h1Zm-17 0v16h1v-16h-1Zm.5 16.5c9.113 0 16.5-7.387 16.5-16.5h-1c0 8.56-6.94 15.5-15.5 15.5v1Zm-16-48h16v-1h-16v1Zm16.5-.5c0-9.1127-7.387-16.5-16.5-16.5v1c8.56 0 15.5 6.9396 15.5 15.5h1ZM369 145.5h16v-1h-16v1Zm16.5-.5c0-9.113-7.387-16.5-16.5-16.5v1c8.56 0 15.5 6.94 15.5 15.5h1ZM353 128.5h-16v1h16v-1Zm-16.5.5c0 9.113 7.387 16.5 16.5 16.5v-1c-8.56 0-15.5-6.94-15.5-15.5h-1ZM353 64.5h-16v1h16v-1Zm-16.5.5c0 9.1127 7.387 16.5 16.5 16.5v-1c-8.56 0-15.5-6.9396-15.5-15.5h-1Zm48 16v16h1V81h-1Zm17 16c0-9.1127-7.387-16.5-16.5-16.5v1c8.56 0 15.5 6.9396 15.5 15.5h1Zm0 16v-7.68h-1V113h1Zm0-7.68V97h-1v8.32h1Z" class="path"/><path fill="#BFF589" d="M433 129v.5-.5Zm-16 16v-.5.5Zm16-64v-.5.5Zm0-16v-.5.5Zm-16 0v.5-.5Zm0 16v.5-.5Zm48 32h-.5.5Zm0-16h.5-.5Zm-16 32h-.5v.5h.5v-.5Zm-48 0v-.5h-.5v.5h.5Zm48 16v.5h.5v-.5h-.5Zm-48-80v-.5h-.5v.5h.5Zm32 63.5h-16v1h16v-1Zm-16 17h16v-1h-16v1Zm16-81h-16v1h16v-1Zm-16 17h16v-1h-16v1ZM448.5 97v16h1V97h-1Zm17 16V97h-1v16h1Zm-17 0v16h1v-16h-1Zm.5 16.5c9.113 0 16.5-7.387 16.5-16.5h-1c0 8.56-6.94 15.5-15.5 15.5v1Zm-16-48h16v-1h-16v1Zm16.5-.5c0-9.1127-7.387-16.5-16.5-16.5v1c8.56 0 15.5 6.9396 15.5 15.5h1ZM433 145.5h16v-1h-16v1Zm16.5-.5c0-9.113-7.387-16.5-16.5-16.5v1c8.56 0 15.5 6.94 15.5 15.5h1ZM417 128.5h-16v1h16v-1Zm-16.5.5c0 9.113 7.387 16.5 16.5 16.5v-1c-8.56 0-15.5-6.94-15.5-15.5h-1ZM417 64.5h-16v1h16v-1Zm-16.5.5c0 9.1127 7.387 16.5 16.5 16.5v-1c-8.56 0-15.5-6.9396-15.5-15.5h-1Zm48 16v16h1V81h-1Zm17 16c0-9.1127-7.387-16.5-16.5-16.5v1c8.56 0 15.5 6.9396 15.5 15.5h1Zm0 16v-7.68h-1V113h1Zm0-7.68V97h-1v8.32h1Z" class="path"/><path fill="#BFF589" d="M497 129v.5-.5Zm-16 16v-.5.5Zm16-64v-.5.5Zm0-16v-.5.5Zm-16 0v.5-.5Zm0 16v.5-.5Zm48 32h-.5.5Zm0-16h.5-.5Zm-16 32h-.5v.5h.5v-.5Zm-48 0v-.5h-.5v.5h.5Zm48 16v.5h.5v-.5h-.5Zm-48-80v-.5h-.5v.5h.5Zm32 63.5h-16v1h16v-1Zm-16 17h16v-1h-16v1Zm16-81h-16v1h16v-1Zm-16 17h16v-1h-16v1ZM512.5 97v16h1V97h-1Zm17 16V97h-1v16h1Zm-17 0v16h1v-16h-1Zm.5 16.5c9.113 0 16.5-7.387 16.5-16.5h-1c0 8.56-6.94 15.5-15.5 15.5v1Zm-16-48h16v-1h-16v1Zm16.5-.5c0-9.1127-7.387-16.5-16.5-16.5v1c8.56 0 15.5 6.9396 15.5 15.5h1ZM497 145.5h16v-1h-16v1Zm16.5-.5c0-9.113-7.387-16.5-16.5-16.5v1c8.56 0 15.5 6.94 15.5 15.5h1ZM481 128.5h-16v1h16v-1Zm-16.5.5c0 9.113 7.387 16.5 16.5 16.5v-1c-8.56 0-15.5-6.94-15.5-15.5h-1ZM481 64.5h-16v1h16v-1Zm-16.5.5c0 9.1127 7.387 16.5 16.5 16.5v-1c-8.56 0-15.5-6.9396-15.5-15.5h-1Zm48 16v16h1V81h-1Zm17 16c0-9.1127-7.387-16.5-16.5-16.5v1c8.56 0 15.5 6.9396 15.5 15.5h1Zm0 16v-7.68h-1V113h1Zm0-7.68V97h-1v8.32h1Z" class="path"/><path fill="#BFF589" d="M561 401v-.5.5Zm-16-16v.5-.5Zm16 64v.5-.5Zm0 16v.5-.5Zm-16 0v-.5.5Zm0-16v-.5.5Zm48-32h-.5.5Zm0 16h.5-.5Zm-16-32h-.5v-.5h.5v.5Zm-48 0v.5h-.5v-.5h.5Zm48-16v-.5h.5v.5h-.5Zm-48 80v.5h-.5v-.5h.5Zm32-63.5h-16v-1h16v1Zm-16-17h16v1h-16v-1Zm16 81h-16v-1h16v1Zm-16-17h16v1h-16v-1Zm31.5-15.5v-16h1v16h-1Zm17-16v16h-1v-16h1Zm-17 0v-16h1v16h-1Zm.5-16.5c9.113 0 16.5 7.387 16.5 16.5h-1c0-8.56-6.94-15.5-15.5-15.5v-1Zm-16 48h16v1h-16v-1Zm16.5.5c0 9.113-7.387 16.5-16.5 16.5v-1c8.56 0 15.5-6.94 15.5-15.5h1ZM561 384.5h16v1h-16v-1Zm16.5.5c0 9.113-7.387 16.5-16.5 16.5v-1c8.56 0 15.5-6.94 15.5-15.5h1ZM545 401.5h-16v-1h16v1Zm-16.5-.5c0-9.113 7.387-16.5 16.5-16.5v1c-8.56 0-15.5 6.94-15.5 15.5h-1Zm16.5 64.5h-16v-1h16v1Zm-16.5-.5c0-9.113 7.387-16.5 16.5-16.5v1c-8.56 0-15.5 6.94-15.5 15.5h-1Zm48-16v-16h1v16h-1Zm17-16c0 9.113-7.387 16.5-16.5 16.5v-1c8.56 0 15.5-6.94 15.5-15.5h1Zm0-16v7.68h-1V417h1Zm0 7.68V433h-1v-8.32h1Z" class="path"/><path fill="#BFF589" d="M625 129v.5-.5Zm-16 16v-.5.5Zm16-64v-.5.5Zm0-16v-.5.5Zm-16 0v.5-.5Zm0 16v.5-.5Zm48 32h-.5.5Zm0-16h.5-.5Zm-16 32h-.5v.5h.5v-.5Zm-48 0v-.5h-.5v.5h.5Zm48 16v.5h.5v-.5h-.5Zm-48-80v-.5h-.5v.5h.5Zm32 63.5h-16v1h16v-1Zm-16 17h16v-1h-16v1Zm16-81h-16v1h16v-1Zm-16 17h16v-1h-16v1ZM640.5 97v16h1V97h-1Zm17 16V97h-1v16h1Zm-17 0v16h1v-16h-1Zm.5 16.5c9.113 0 16.5-7.387 16.5-16.5h-1c0 8.56-6.94 15.5-15.5 15.5v1Zm-16-48h16v-1h-16v1Zm16.5-.5c0-9.1127-7.387-16.5-16.5-16.5v1c8.56 0 15.5 6.9396 15.5 15.5h1ZM625 145.5h16v-1h-16v1Zm16.5-.5c0-9.113-7.387-16.5-16.5-16.5v1c8.56 0 15.5 6.94 15.5 15.5h1ZM609 128.5h-16v1h16v-1Zm-16.5.5c0 9.113 7.387 16.5 16.5 16.5v-1c-8.56 0-15.5-6.94-15.5-15.5h-1ZM609 64.5h-16v1h16v-1Zm-16.5.5c0 9.1127 7.387 16.5 16.5 16.5v-1c-8.56 0-15.5-6.9396-15.5-15.5h-1Zm48 16v16h1V81h-1Zm17 16c0-9.1127-7.387-16.5-16.5-16.5v1c8.56 0 15.5 6.9396 15.5 15.5h1Zm0 16v-7.68h-1V113h1Zm0-7.68V97h-1v8.32h1Z" class="path"/><path fill="#BFF589" d="M689 129v.5-.5Zm-16 16v-.5.5Zm16-64v-.5.5Zm0-16v-.5.5Zm-16 0v.5-.5Zm0 16v.5-.5Zm48 32h-.5.5Zm0-16h.5-.5Zm-16 32h-.5v.5h.5v-.5Zm-48 0v-.5h-.5v.5h.5Zm48 16v.5h.5v-.5h-.5Zm-48-80v-.5h-.5v.5h.5Zm32 63.5h-16v1h16v-1Zm-16 17h16v-1h-16v1Zm16-81h-16v1h16v-1Zm-16 17h16v-1h-16v1ZM704.5 97v16h1V97h-1Zm17 16V97h-1v16h1Zm-17 0v16h1v-16h-1Zm.5 16.5c9.113 0 16.5-7.387 16.5-16.5h-1c0 8.56-6.94 15.5-15.5 15.5v1Zm-16-48h16v-1h-16v1Zm16.5-.5c0-9.1127-7.387-16.5-16.5-16.5v1c8.56 0 15.5 6.9396 15.5 15.5h1ZM689 145.5h16v-1h-16v1Zm16.5-.5c0-9.113-7.387-16.5-16.5-16.5v1c8.56 0 15.5 6.94 15.5 15.5h1ZM673 128.5h-16v1h16v-1Zm-16.5.5c0 9.113 7.387 16.5 16.5 16.5v-1c-8.56 0-15.5-6.94-15.5-15.5h-1ZM673 64.5h-16v1h16v-1Zm-16.5.5c0 9.1127 7.387 16.5 16.5 16.5v-1c-8.56 0-15.5-6.9396-15.5-15.5h-1Zm48 16v16h1V81h-1Zm17 16c0-9.1127-7.387-16.5-16.5-16.5v1c8.56 0 15.5 6.9396 15.5 15.5h1Zm0 16v-7.68h-1V113h1Zm0-7.68V97h-1v8.32h1Z" class="path"/><path fill="#BFF589" d="M369 65v.5-.5Zm-16 16v-.5.5Zm16-64v-.5.5Zm0-16V.5 1Zm-16 0v.5V1Zm0 16v.5-.5Zm48 32h-.5.5Zm0-16h.5-.5Zm-16 32h-.5v.5h.5V65Zm-48 0v-.5h-.5v.5h.5Zm48 16v.5h.5V81h-.5ZM337 1V.5h-.5V1h.5Zm32 63.5h-16v1h16v-1Zm-16 17h16v-1h-16v1Zm16-81h-16v1h16v-1Zm-16 17h16v-1h-16v1ZM384.5 33v16h1V33h-1Zm17 16V33h-1v16h1Zm-17 0v16h1V49h-1Zm.5 16.5c9.113 0 16.5-7.3873 16.5-16.5h-1c0 8.5604-6.94 15.5-15.5 15.5v1Zm-16-48h16v-1h-16v1Zm16.5-.5c0-9.1127-7.387-16.5-16.5-16.5v1c8.56 0 15.5 6.93959 15.5 15.5h1ZM369 81.5h16v-1h-16v1Zm16.5-.5c0-9.1127-7.387-16.5-16.5-16.5v1c8.56 0 15.5 6.9396 15.5 15.5h1ZM353 64.5h-16v1h16v-1Zm-16.5.5c0 9.1127 7.387 16.5 16.5 16.5v-1c-8.56 0-15.5-6.9396-15.5-15.5h-1ZM353 .5h-16v1h16v-1Zm-16.5.5c0 9.1127 7.387 16.5 16.5 16.5v-1c-8.56 0-15.5-6.93959-15.5-15.5h-1Zm48 16v16h1V17h-1Zm17 16c0-9.1127-7.387-16.5-16.5-16.5v1c8.56 0 15.5 6.9396 15.5 15.5h1Zm0 16v-7.68h-1V49h1Zm0-7.68V33h-1v8.32h1Z" class="path"/><path fill="#BFF589" d="M433 65v.5-.5Zm-16 16v-.5.5Zm16-64v-.5.5Zm0-16V.5 1Zm-16 0v.5V1Zm0 16v.5-.5Zm48 32h-.5.5Zm0-16h.5-.5Zm-16 32h-.5v.5h.5V65Zm-48 0v-.5h-.5v.5h.5Zm48 16v.5h.5V81h-.5ZM401 1V.5h-.5V1h.5Zm32 63.5h-16v1h16v-1Zm-16 17h16v-1h-16v1Zm16-81h-16v1h16v-1Zm-16 17h16v-1h-16v1ZM448.5 33v16h1V33h-1Zm17 16V33h-1v16h1Zm-17 0v16h1V49h-1Zm.5 16.5c9.113 0 16.5-7.3873 16.5-16.5h-1c0 8.5604-6.94 15.5-15.5 15.5v1Zm-16-48h16v-1h-16v1Zm16.5-.5c0-9.1127-7.387-16.5-16.5-16.5v1c8.56 0 15.5 6.93959 15.5 15.5h1ZM433 81.5h16v-1h-16v1Zm16.5-.5c0-9.1127-7.387-16.5-16.5-16.5v1c8.56 0 15.5 6.9396 15.5 15.5h1ZM417 64.5h-16v1h16v-1Zm-16.5.5c0 9.1127 7.387 16.5 16.5 16.5v-1c-8.56 0-15.5-6.9396-15.5-15.5h-1ZM417 .5h-16v1h16v-1Zm-16.5.5c0 9.1127 7.387 16.5 16.5 16.5v-1c-8.56 0-15.5-6.93959-15.5-15.5h-1Zm48 16v16h1V17h-1Zm17 16c0-9.1127-7.387-16.5-16.5-16.5v1c8.56 0 15.5 6.9396 15.5 15.5h1Zm0 16v-7.68h-1V49h1Zm0-7.68V33h-1v8.32h1Z" class="path"/><path fill="#BFF589" d="M497 65v.5-.5Zm-16 16v-.5.5Zm16-64v-.5.5Zm0-16V.5 1Zm-16 0v.5V1Zm0 16v.5-.5Zm48 32h-.5.5Zm0-16h.5-.5Zm-16 32h-.5v.5h.5V65Zm-48 0v-.5h-.5v.5h.5Zm48 16v.5h.5V81h-.5ZM465 1V.5h-.5V1h.5Zm32 63.5h-16v1h16v-1Zm-16 17h16v-1h-16v1Zm16-81h-16v1h16v-1Zm-16 17h16v-1h-16v1ZM512.5 33v16h1V33h-1Zm17 16V33h-1v16h1Zm-17 0v16h1V49h-1Zm.5 16.5c9.113 0 16.5-7.3873 16.5-16.5h-1c0 8.5604-6.94 15.5-15.5 15.5v1Zm-16-48h16v-1h-16v1Zm16.5-.5c0-9.1127-7.387-16.5-16.5-16.5v1c8.56 0 15.5 6.93959 15.5 15.5h1ZM497 81.5h16v-1h-16v1Zm16.5-.5c0-9.1127-7.387-16.5-16.5-16.5v1c8.56 0 15.5 6.9396 15.5 15.5h1ZM481 64.5h-16v1h16v-1Zm-16.5.5c0 9.1127 7.387 16.5 16.5 16.5v-1c-8.56 0-15.5-6.9396-15.5-15.5h-1ZM481 .5h-16v1h16v-1Zm-16.5.5c0 9.1127 7.387 16.5 16.5 16.5v-1c-8.56 0-15.5-6.93959-15.5-15.5h-1Zm48 16v16h1V17h-1Zm17 16c0-9.1127-7.387-16.5-16.5-16.5v1c8.56 0 15.5 6.9396 15.5 15.5h1Zm0 16v-7.68h-1V49h1Zm0-7.68V33h-1v8.32h1Z" class="path"/><path fill="#BFF589" d="M561 465v-.5.5Zm-16-16v.5-.5Zm16 64v.5-.5Zm0 16v.5-.5Zm-16 0v-.5.5Zm0-16v-.5.5Zm48-32h-.5.5Zm0 16h.5-.5Zm-16-32h-.5v-.5h.5v.5Zm-48 0v.5h-.5v-.5h.5Zm48-16v-.5h.5v.5h-.5Zm-48 80v.5h-.5v-.5h.5Zm32-63.5h-16v-1h16v1Zm-16-17h16v1h-16v-1Zm16 81h-16v-1h16v1Zm-16-17h16v1h-16v-1Zm31.5-15.5v-16h1v16h-1Zm17-16v16h-1v-16h1Zm-17 0v-16h1v16h-1Zm.5-16.5c9.113 0 16.5 7.387 16.5 16.5h-1c0-8.56-6.94-15.5-15.5-15.5v-1Zm-16 48h16v1h-16v-1Zm16.5.5c0 9.113-7.387 16.5-16.5 16.5v-1c8.56 0 15.5-6.94 15.5-15.5h1ZM561 448.5h16v1h-16v-1Zm16.5.5c0 9.113-7.387 16.5-16.5 16.5v-1c8.56 0 15.5-6.94 15.5-15.5h1ZM545 465.5h-16v-1h16v1Zm-16.5-.5c0-9.113 7.387-16.5 16.5-16.5v1c-8.56 0-15.5 6.94-15.5 15.5h-1Zm16.5 64.5h-16v-1h16v1Zm-16.5-.5c0-9.113 7.387-16.5 16.5-16.5v1c-8.56 0-15.5 6.94-15.5 15.5h-1Zm48-16v-16h1v16h-1Zm17-16c0 9.113-7.387 16.5-16.5 16.5v-1c8.56 0 15.5-6.94 15.5-15.5h1Zm0-16v7.68h-1V481h1Zm0 7.68V497h-1v-8.32h1Z" class="path"/><path fill="#BFF589" d="M241 321v.5-.5Zm-16 16v-.5.5Zm16-64v-.5.5Zm0-16v-.5.5Zm-16 0v.5-.5Zm0 16v.5-.5Zm48 32h-.5.5Zm0-16h.5-.5Zm-16 32h-.5v.5h.5v-.5Zm-48 0v-.5h-.5v.5h.5Zm48 16v.5h.5v-.5h-.5Zm-48-80v-.5h-.5v.5h.5Zm32 63.5h-16v1h16v-1Zm-16 17h16v-1h-16v1Zm16-81h-16v1h16v-1Zm-16 17h16v-1h-16v1Zm31.5 15.5v16h1v-16h-1Zm17 16v-16h-1v16h1Zm-17 0v16h1v-16h-1Zm.5 16.5c9.113 0 16.5-7.387 16.5-16.5h-1c0 8.56-6.94 15.5-15.5 15.5v1Zm-16-48h16v-1h-16v1Zm16.5-.5c0-9.113-7.387-16.5-16.5-16.5v1c8.56 0 15.5 6.94 15.5 15.5h1ZM241 337.5h16v-1h-16v1Zm16.5-.5c0-9.113-7.387-16.5-16.5-16.5v1c8.56 0 15.5 6.94 15.5 15.5h1ZM225 320.5h-16v1h16v-1Zm-16.5.5c0 9.113 7.387 16.5 16.5 16.5v-1c-8.56 0-15.5-6.94-15.5-15.5h-1Zm16.5-64.5h-16v1h16v-1Zm-16.5.5c0 9.113 7.387 16.5 16.5 16.5v-1c-8.56 0-15.5-6.94-15.5-15.5h-1Zm48 16v16h1v-16h-1Zm17 16c0-9.113-7.387-16.5-16.5-16.5v1c8.56 0 15.5 6.94 15.5 15.5h1Zm0 16v-7.68h-1V305h1Zm0-7.68V289h-1v8.32h1Z" class="path"/><path fill="#BFF589" d="M625 65v.5-.5Zm-16 16v-.5.5Zm16-64v-.5.5Zm0-16V.5 1Zm-16 0v.5V1Zm0 16v.5-.5Zm48 32h-.5.5Zm0-16h.5-.5Zm-16 32h-.5v.5h.5V65Zm-48 0v-.5h-.5v.5h.5Zm48 16v.5h.5V81h-.5ZM593 1V.5h-.5V1h.5Zm32 63.5h-16v1h16v-1Zm-16 17h16v-1h-16v1Zm16-81h-16v1h16v-1Zm-16 17h16v-1h-16v1ZM640.5 33v16h1V33h-1Zm17 16V33h-1v16h1Zm-17 0v16h1V49h-1Zm.5 16.5c9.113 0 16.5-7.3873 16.5-16.5h-1c0 8.5604-6.94 15.5-15.5 15.5v1Zm-16-48h16v-1h-16v1Zm16.5-.5c0-9.1127-7.387-16.5-16.5-16.5v1c8.56 0 15.5 6.93959 15.5 15.5h1ZM625 81.5h16v-1h-16v1Zm16.5-.5c0-9.1127-7.387-16.5-16.5-16.5v1c8.56 0 15.5 6.9396 15.5 15.5h1ZM609 64.5h-16v1h16v-1Zm-16.5.5c0 9.1127 7.387 16.5 16.5 16.5v-1c-8.56 0-15.5-6.9396-15.5-15.5h-1ZM609 .5h-16v1h16v-1Zm-16.5.5c0 9.1127 7.387 16.5 16.5 16.5v-1c-8.56 0-15.5-6.93959-15.5-15.5h-1Zm48 16v16h1V17h-1Zm17 16c0-9.1127-7.387-16.5-16.5-16.5v1c8.56 0 15.5 6.9396 15.5 15.5h1Zm0 16v-7.68h-1V49h1Zm0-7.68V33h-1v8.32h1Z" class="path"/><path fill="#BFF589" d="M689 65v.5-.5Zm-16 16v-.5.5Zm16-64v-.5.5Zm0-16V.5 1Zm-16 0v.5V1Zm0 16v.5-.5Zm48 32h-.5.5Zm0-16h.5-.5Zm-16 32h-.5v.5h.5V65Zm-48 0v-.5h-.5v.5h.5Zm48 16v.5h.5V81h-.5ZM657 1V.5h-.5V1h.5Zm32 63.5h-16v1h16v-1Zm-16 17h16v-1h-16v1Zm16-81h-16v1h16v-1Zm-16 17h16v-1h-16v1ZM704.5 33v16h1V33h-1Zm17 16V33h-1v16h1Zm-17 0v16h1V49h-1Zm.5 16.5c9.113 0 16.5-7.3873 16.5-16.5h-1c0 8.5604-6.94 15.5-15.5 15.5v1Zm-16-48h16v-1h-16v1Zm16.5-.5c0-9.1127-7.387-16.5-16.5-16.5v1c8.56 0 15.5 6.93959 15.5 15.5h1ZM689 81.5h16v-1h-16v1Zm16.5-.5c0-9.1127-7.387-16.5-16.5-16.5v1c8.56 0 15.5 6.9396 15.5 15.5h1ZM673 64.5h-16v1h16v-1Zm-16.5.5c0 9.1127 7.387 16.5 16.5 16.5v-1c-8.56 0-15.5-6.9396-15.5-15.5h-1ZM673 .5h-16v1h16v-1Zm-16.5.5c0 9.1127 7.387 16.5 16.5 16.5v-1c-8.56 0-15.5-6.93959-15.5-15.5h-1Zm48 16v16h1V17h-1Zm17 16c0-9.1127-7.387-16.5-16.5-16.5v1c8.56 0 15.5 6.9396 15.5 15.5h1Zm0 16v-7.68h-1V49h1Zm0-7.68V33h-1v8.32h1Z" class="path"/><path fill="#BFF589" d="M177 321v.5-.5Zm-16 16v-.5.5Zm16-64v-.5.5Zm0-16v-.5.5Zm-16 0v.5-.5Zm0 16v.5-.5Zm48 32h-.5.5Zm0-16h.5-.5Zm-16 32h-.5v.5h.5v-.5Zm-48 0v-.5h-.5v.5h.5Zm48 16v.5h.5v-.5h-.5Zm-48-80v-.5h-.5v.5h.5Zm32 63.5h-16v1h16v-1Zm-16 17h16v-1h-16v1Zm16-81h-16v1h16v-1Zm-16 17h16v-1h-16v1Zm31.5 15.5v16h1v-16h-1Zm17 16v-16h-1v16h1Zm-17 0v16h1v-16h-1Zm.5 16.5c9.113 0 16.5-7.387 16.5-16.5h-1c0 8.56-6.94 15.5-15.5 15.5v1Zm-16-48h16v-1h-16v1Zm16.5-.5c0-9.113-7.387-16.5-16.5-16.5v1c8.56 0 15.5 6.94 15.5 15.5h1ZM177 337.5h16v-1h-16v1Zm16.5-.5c0-9.113-7.387-16.5-16.5-16.5v1c8.56 0 15.5 6.94 15.5 15.5h1ZM161 320.5h-16v1h16v-1Zm-16.5.5c0 9.113 7.387 16.5 16.5 16.5v-1c-8.56 0-15.5-6.94-15.5-15.5h-1Zm16.5-64.5h-16v1h16v-1Zm-16.5.5c0 9.113 7.387 16.5 16.5 16.5v-1c-8.56 0-15.5-6.94-15.5-15.5h-1Zm48 16v16h1v-16h-1Zm17 16c0-9.113-7.387-16.5-16.5-16.5v1c8.56 0 15.5 6.94 15.5 15.5h1Zm0 16v-7.68h-1V305h1Zm0-7.68V289h-1v8.32h1Z" class="path"/><path fill="#BFF589" d="M113 321v.5-.5Zm-16 16v-.5.5Zm16-64v-.5.5Zm0-16v-.5.5Zm-16 0v.5-.5Zm0 16v.5-.5Zm48 32h-.5.5Zm0-16h.5-.5Zm-16 32h-.5v.5h.5v-.5Zm-48 0v-.5h-.5v.5h.5Zm48 16v.5h.5v-.5h-.5Zm-48-80v-.5h-.5v.5h.5Zm32 63.5H97v1h16v-1Zm-16 17h16v-1H97v1Zm16-81H97v1h16v-1Zm-16 17h16v-1H97v1Zm31.5 15.5v16h1v-16h-1Zm17 16v-16h-1v16h1Zm-17 0v16h1v-16h-1Zm.5 16.5c9.113 0 16.5-7.387 16.5-16.5h-1c0 8.56-6.94 15.5-15.5 15.5v1Zm-16-48h16v-1h-16v1Zm16.5-.5c0-9.113-7.387-16.5-16.5-16.5v1c8.56 0 15.5 6.94 15.5 15.5h1ZM113 337.5h16v-1h-16v1Zm16.5-.5c0-9.113-7.387-16.5-16.5-16.5v1c8.56 0 15.5 6.94 15.5 15.5h1ZM97 320.5H81v1h16v-1Zm-16.5.5c0 9.113 7.3873 16.5 16.5 16.5v-1c-8.5604 0-15.5-6.94-15.5-15.5h-1ZM97 256.5H81v1h16v-1Zm-16.5.5c0 9.113 7.3873 16.5 16.5 16.5v-1c-8.5604 0-15.5-6.94-15.5-15.5h-1Zm48 16v16h1v-16h-1Zm17 16c0-9.113-7.387-16.5-16.5-16.5v1c8.56 0 15.5 6.94 15.5 15.5h1Zm0 16v-7.68h-1V305h1Zm0-7.68V289h-1v8.32h1Z" class="path"/><path fill="#BFF589" d="M305 321v.5-.5Zm-16 16v-.5.5Zm16-64v-.5.5Zm0-16v-.5.5Zm-16 0v.5-.5Zm0 16v.5-.5Zm48 32h-.5.5Zm0-16h.5-.5Zm-16 32h-.5v.5h.5v-.5Zm-48 0v-.5h-.5v.5h.5Zm48 16v.5h.5v-.5h-.5Zm-48-80v-.5h-.5v.5h.5Zm32 63.5h-16v1h16v-1Zm-16 17h16v-1h-16v1Zm16-81h-16v1h16v-1Zm-16 17h16v-1h-16v1Zm31.5 15.5v16h1v-16h-1Zm17 16v-16h-1v16h1Zm-17 0v16h1v-16h-1Zm.5 16.5c9.113 0 16.5-7.387 16.5-16.5h-1c0 8.56-6.94 15.5-15.5 15.5v1Zm-16-48h16v-1h-16v1Zm16.5-.5c0-9.113-7.387-16.5-16.5-16.5v1c8.56 0 15.5 6.94 15.5 15.5h1ZM305 337.5h16v-1h-16v1Zm16.5-.5c0-9.113-7.387-16.5-16.5-16.5v1c8.56 0 15.5 6.94 15.5 15.5h1ZM289 320.5h-16v1h16v-1Zm-16.5.5c0 9.113 7.387 16.5 16.5 16.5v-1c-8.56 0-15.5-6.94-15.5-15.5h-1Zm16.5-64.5h-16v1h16v-1Zm-16.5.5c0 9.113 7.387 16.5 16.5 16.5v-1c-8.56 0-15.5-6.94-15.5-15.5h-1Zm48 16v16h1v-16h-1Zm17 16c0-9.113-7.387-16.5-16.5-16.5v1c8.56 0 15.5 6.94 15.5 15.5h1Zm0 16v-7.68h-1V305h1Zm0-7.68V289h-1v8.32h1Z" class="path"/><path fill="#BFF589" d="M369 321v.5-.5Zm-16 16v-.5.5Zm16-64v-.5.5Zm0-16v-.5.5Zm-16 0v.5-.5Zm0 16v.5-.5Zm48 32h-.5.5Zm0-16h.5-.5Zm-16 32h-.5v.5h.5v-.5Zm-48 0v-.5h-.5v.5h.5Zm48 16v.5h.5v-.5h-.5Zm-48-80v-.5h-.5v.5h.5Zm32 63.5h-16v1h16v-1Zm-16 17h16v-1h-16v1Zm16-81h-16v1h16v-1Zm-16 17h16v-1h-16v1Zm31.5 15.5v16h1v-16h-1Zm17 16v-16h-1v16h1Zm-17 0v16h1v-16h-1Zm.5 16.5c9.113 0 16.5-7.387 16.5-16.5h-1c0 8.56-6.94 15.5-15.5 15.5v1Zm-16-48h16v-1h-16v1Zm16.5-.5c0-9.113-7.387-16.5-16.5-16.5v1c8.56 0 15.5 6.94 15.5 15.5h1ZM369 337.5h16v-1h-16v1Zm16.5-.5c0-9.113-7.387-16.5-16.5-16.5v1c8.56 0 15.5 6.94 15.5 15.5h1ZM353 320.5h-16v1h16v-1Zm-16.5.5c0 9.113 7.387 16.5 16.5 16.5v-1c-8.56 0-15.5-6.94-15.5-15.5h-1Zm16.5-64.5h-16v1h16v-1Zm-16.5.5c0 9.113 7.387 16.5 16.5 16.5v-1c-8.56 0-15.5-6.94-15.5-15.5h-1Zm48 16v16h1v-16h-1Zm17 16c0-9.113-7.387-16.5-16.5-16.5v1c8.56 0 15.5 6.94 15.5 15.5h1Zm0 16v-7.68h-1V305h1Zm0-7.68V289h-1v8.32h1Z" class="path"/><path fill="#BFF589" d="M241 385v.5-.5Zm-16 16v-.5.5Zm16-64v-.5.5Zm0-16v-.5.5Zm-16 0v.5-.5Zm0 16v.5-.5Zm48 32h-.5.5Zm0-16h.5-.5Zm-16 32h-.5v.5h.5v-.5Zm-48 0v-.5h-.5v.5h.5Zm48 16v.5h.5v-.5h-.5Zm-48-80v-.5h-.5v.5h.5Zm32 63.5h-16v1h16v-1Zm-16 17h16v-1h-16v1Zm16-81h-16v1h16v-1Zm-16 17h16v-1h-16v1Zm31.5 15.5v16h1v-16h-1Zm17 16v-16h-1v16h1Zm-17 0v16h1v-16h-1Zm.5 16.5c9.113 0 16.5-7.387 16.5-16.5h-1c0 8.56-6.94 15.5-15.5 15.5v1Zm-16-48h16v-1h-16v1Zm16.5-.5c0-9.113-7.387-16.5-16.5-16.5v1c8.56 0 15.5 6.94 15.5 15.5h1ZM241 401.5h16v-1h-16v1Zm16.5-.5c0-9.113-7.387-16.5-16.5-16.5v1c8.56 0 15.5 6.94 15.5 15.5h1ZM225 384.5h-16v1h16v-1Zm-16.5.5c0 9.113 7.387 16.5 16.5 16.5v-1c-8.56 0-15.5-6.94-15.5-15.5h-1Zm16.5-64.5h-16v1h16v-1Zm-16.5.5c0 9.113 7.387 16.5 16.5 16.5v-1c-8.56 0-15.5-6.94-15.5-15.5h-1Zm48 16v16h1v-16h-1Zm17 16c0-9.113-7.387-16.5-16.5-16.5v1c8.56 0 15.5 6.94 15.5 15.5h1Zm0 16v-7.68h-1V369h1Zm0-7.68V353h-1v8.32h1Z" class="path"/><path fill="#BFF589" d="M241 449v.5-.5Zm-16 16v-.5.5Zm16-64v-.5.5Zm0-16v-.5.5Zm-16 0v.5-.5Zm0 16v.5-.5Zm48 32h-.5.5Zm0-16h.5-.5Zm-16 32h-.5v.5h.5v-.5Zm-48 0v-.5h-.5v.5h.5Zm48 16v.5h.5v-.5h-.5Zm-48-80v-.5h-.5v.5h.5Zm32 63.5h-16v1h16v-1Zm-16 17h16v-1h-16v1Zm16-81h-16v1h16v-1Zm-16 17h16v-1h-16v1Zm31.5 15.5v16h1v-16h-1Zm17 16v-16h-1v16h1Zm-17 0v16h1v-16h-1Zm.5 16.5c9.113 0 16.5-7.387 16.5-16.5h-1c0 8.56-6.94 15.5-15.5 15.5v1Zm-16-48h16v-1h-16v1Zm16.5-.5c0-9.113-7.387-16.5-16.5-16.5v1c8.56 0 15.5 6.94 15.5 15.5h1ZM241 465.5h16v-1h-16v1Zm16.5-.5c0-9.113-7.387-16.5-16.5-16.5v1c8.56 0 15.5 6.94 15.5 15.5h1ZM225 448.5h-16v1h16v-1Zm-16.5.5c0 9.113 7.387 16.5 16.5 16.5v-1c-8.56 0-15.5-6.94-15.5-15.5h-1Zm16.5-64.5h-16v1h16v-1Zm-16.5.5c0 9.113 7.387 16.5 16.5 16.5v-1c-8.56 0-15.5-6.94-15.5-15.5h-1Zm48 16v16h1v-16h-1Zm17 16c0-9.113-7.387-16.5-16.5-16.5v1c8.56 0 15.5 6.94 15.5 15.5h1Zm0 16v-7.68h-1V433h1Zm0-7.68V417h-1v8.32h1Z" class="path"/><path fill="#BFF589" d="M241 513v.5-.5Zm-16 16v-.5.5Zm16-64v-.5.5Zm0-16v-.5.5Zm-16 0v.5-.5Zm0 16v.5-.5Zm48 32h-.5.5Zm0-16h.5-.5Zm-16 32h-.5v.5h.5v-.5Zm-48 0v-.5h-.5v.5h.5Zm48 16v.5h.5v-.5h-.5Zm-48-80v-.5h-.5v.5h.5Zm32 63.5h-16v1h16v-1Zm-16 17h16v-1h-16v1Zm16-81h-16v1h16v-1Zm-16 17h16v-1h-16v1Zm31.5 15.5v16h1v-16h-1Zm17 16v-16h-1v16h1Zm-17 0v16h1v-16h-1Zm.5 16.5c9.113 0 16.5-7.387 16.5-16.5h-1c0 8.56-6.94 15.5-15.5 15.5v1Zm-16-48h16v-1h-16v1Zm16.5-.5c0-9.113-7.387-16.5-16.5-16.5v1c8.56 0 15.5 6.94 15.5 15.5h1ZM241 529.5h16v-1h-16v1Zm16.5-.5c0-9.113-7.387-16.5-16.5-16.5v1c8.56 0 15.5 6.94 15.5 15.5h1ZM225 512.5h-16v1h16v-1Zm-16.5.5c0 9.113 7.387 16.5 16.5 16.5v-1c-8.56 0-15.5-6.94-15.5-15.5h-1Zm16.5-64.5h-16v1h16v-1Zm-16.5.5c0 9.113 7.387 16.5 16.5 16.5v-1c-8.56 0-15.5-6.94-15.5-15.5h-1Zm48 16v16h1v-16h-1Zm17 16c0-9.113-7.387-16.5-16.5-16.5v1c8.56 0 15.5 6.94 15.5 15.5h1Zm0 16v-7.68h-1V497h1Zm0-7.68V481h-1v8.32h1Z" class="path"/><path fill="#BFF589" d="M433 321v.5-.5Zm-16 16v-.5.5Zm16-64v-.5.5Zm0-16v-.5.5Zm-16 0v.5-.5Zm0 16v.5-.5Zm48 32h-.5.5Zm0-16h.5-.5Zm-16 32h-.5v.5h.5v-.5Zm-48 0v-.5h-.5v.5h.5Zm48 16v.5h.5v-.5h-.5Zm-48-80v-.5h-.5v.5h.5Zm32 63.5h-16v1h16v-1Zm-16 17h16v-1h-16v1Zm16-81h-16v1h16v-1Zm-16 17h16v-1h-16v1Zm31.5 15.5v16h1v-16h-1Zm17 16v-16h-1v16h1Zm-17 0v16h1v-16h-1Zm.5 16.5c9.113 0 16.5-7.387 16.5-16.5h-1c0 8.56-6.94 15.5-15.5 15.5v1Zm-16-48h16v-1h-16v1Zm16.5-.5c0-9.113-7.387-16.5-16.5-16.5v1c8.56 0 15.5 6.94 15.5 15.5h1ZM433 337.5h16v-1h-16v1Zm16.5-.5c0-9.113-7.387-16.5-16.5-16.5v1c8.56 0 15.5 6.94 15.5 15.5h1ZM417 320.5h-16v1h16v-1Zm-16.5.5c0 9.113 7.387 16.5 16.5 16.5v-1c-8.56 0-15.5-6.94-15.5-15.5h-1Zm16.5-64.5h-16v1h16v-1Zm-16.5.5c0 9.113 7.387 16.5 16.5 16.5v-1c-8.56 0-15.5-6.94-15.5-15.5h-1Zm48 16v16h1v-16h-1Zm17 16c0-9.113-7.387-16.5-16.5-16.5v1c8.56 0 15.5 6.94 15.5 15.5h1Zm0 16v-7.68h-1V305h1Zm0-7.68V289h-1v8.32h1Z" class="path"/><path fill="#BFF589" d="M497 321v.5-.5Zm-16 16v-.5.5Zm16-64v-.5.5Zm0-16v-.5.5Zm-16 0v.5-.5Zm0 16v.5-.5Zm48 32h-.5.5Zm0-16h.5-.5Zm-16 32h-.5v.5h.5v-.5Zm-48 0v-.5h-.5v.5h.5Zm48 16v.5h.5v-.5h-.5Zm-48-80v-.5h-.5v.5h.5Zm32 63.5h-16v1h16v-1Zm-16 17h16v-1h-16v1Zm16-81h-16v1h16v-1Zm-16 17h16v-1h-16v1Zm31.5 15.5v16h1v-16h-1Zm17 16v-16h-1v16h1Zm-17 0v16h1v-16h-1Zm.5 16.5c9.113 0 16.5-7.387 16.5-16.5h-1c0 8.56-6.94 15.5-15.5 15.5v1Zm-16-48h16v-1h-16v1Zm16.5-.5c0-9.113-7.387-16.5-16.5-16.5v1c8.56 0 15.5 6.94 15.5 15.5h1ZM497 337.5h16v-1h-16v1Zm16.5-.5c0-9.113-7.387-16.5-16.5-16.5v1c8.56 0 15.5 6.94 15.5 15.5h1ZM481 320.5h-16v1h16v-1Zm-16.5.5c0 9.113 7.387 16.5 16.5 16.5v-1c-8.56 0-15.5-6.94-15.5-15.5h-1Zm16.5-64.5h-16v1h16v-1Zm-16.5.5c0 9.113 7.387 16.5 16.5 16.5v-1c-8.56 0-15.5-6.94-15.5-15.5h-1Zm48 16v16h1v-16h-1Zm17 16c0-9.113-7.387-16.5-16.5-16.5v1c8.56 0 15.5 6.94 15.5 15.5h1Zm0 16v-7.68h-1V305h1Zm0-7.68V289h-1v8.32h1Z" class="path"/><path fill="#BFF589" d="M561 209v-.5.5Zm-16-16v.5-.5Zm16 64v.5-.5Zm0 16v.5-.5Zm-16 0v-.5.5Zm0-16v-.5.5Zm48-32h-.5.5Zm0 16h.5-.5Zm-16-32h-.5v-.5h.5v.5Zm-48 0v.5h-.5v-.5h.5Zm48-16v-.5h.5v.5h-.5Zm-48 80v.5h-.5v-.5h.5Zm32-63.5h-16v-1h16v1Zm-16-17h16v1h-16v-1Zm16 81h-16v-1h16v1Zm-16-17h16v1h-16v-1Zm31.5-15.5v-16h1v16h-1Zm17-16v16h-1v-16h1Zm-17 0v-16h1v16h-1Zm.5-16.5c9.113 0 16.5 7.387 16.5 16.5h-1c0-8.56-6.94-15.5-15.5-15.5v-1Zm-16 48h16v1h-16v-1Zm16.5.5c0 9.113-7.387 16.5-16.5 16.5v-1c8.56 0 15.5-6.94 15.5-15.5h1ZM561 192.5h16v1h-16v-1Zm16.5.5c0 9.113-7.387 16.5-16.5 16.5v-1c8.56 0 15.5-6.94 15.5-15.5h1ZM545 209.5h-16v-1h16v1Zm-16.5-.5c0-9.113 7.387-16.5 16.5-16.5v1c-8.56 0-15.5 6.94-15.5 15.5h-1Zm16.5 64.5h-16v-1h16v1Zm-16.5-.5c0-9.113 7.387-16.5 16.5-16.5v1c-8.56 0-15.5 6.94-15.5 15.5h-1Zm48-16v-16h1v16h-1Zm17-16c0 9.113-7.387 16.5-16.5 16.5v-1c8.56 0 15.5-6.94 15.5-15.5h1Zm0-16v7.68h-1V225h1Zm0 7.68V241h-1v-8.32h1Z" class="path"/><path fill="#BFF589" d="M625 321v.5-.5Zm-16 16v-.5.5Zm16-64v-.5.5Zm0-16v-.5.5Zm-16 0v.5-.5Zm0 16v.5-.5Zm48 32h-.5.5Zm0-16h.5-.5Zm-16 32h-.5v.5h.5v-.5Zm-48 0v-.5h-.5v.5h.5Zm48 16v.5h.5v-.5h-.5Zm-48-80v-.5h-.5v.5h.5Zm32 63.5h-16v1h16v-1Zm-16 17h16v-1h-16v1Zm16-81h-16v1h16v-1Zm-16 17h16v-1h-16v1Zm31.5 15.5v16h1v-16h-1Zm17 16v-16h-1v16h1Zm-17 0v16h1v-16h-1Zm.5 16.5c9.113 0 16.5-7.387 16.5-16.5h-1c0 8.56-6.94 15.5-15.5 15.5v1Zm-16-48h16v-1h-16v1Zm16.5-.5c0-9.113-7.387-16.5-16.5-16.5v1c8.56 0 15.5 6.94 15.5 15.5h1ZM625 337.5h16v-1h-16v1Zm16.5-.5c0-9.113-7.387-16.5-16.5-16.5v1c8.56 0 15.5 6.94 15.5 15.5h1ZM609 320.5h-16v1h16v-1Zm-16.5.5c0 9.113 7.387 16.5 16.5 16.5v-1c-8.56 0-15.5-6.94-15.5-15.5h-1Zm16.5-64.5h-16v1h16v-1Zm-16.5.5c0 9.113 7.387 16.5 16.5 16.5v-1c-8.56 0-15.5-6.94-15.5-15.5h-1Zm48 16v16h1v-16h-1Zm17 16c0-9.113-7.387-16.5-16.5-16.5v1c8.56 0 15.5 6.94 15.5 15.5h1Zm0 16v-7.68h-1V305h1Zm0-7.68V289h-1v8.32h1Z" class="path"/><path fill="#BFF589" d="M689 321v.5-.5Zm-16 16v-.5.5Zm16-64v-.5.5Zm0-16v-.5.5Zm-16 0v.5-.5Zm0 16v.5-.5Zm48 32h-.5.5Zm0-16h.5-.5Zm-16 32h-.5v.5h.5v-.5Zm-48 0v-.5h-.5v.5h.5Zm48 16v.5h.5v-.5h-.5Zm-48-80v-.5h-.5v.5h.5Zm32 63.5h-16v1h16v-1Zm-16 17h16v-1h-16v1Zm16-81h-16v1h16v-1Zm-16 17h16v-1h-16v1Zm31.5 15.5v16h1v-16h-1Zm17 16v-16h-1v16h1Zm-17 0v16h1v-16h-1Zm.5 16.5c9.113 0 16.5-7.387 16.5-16.5h-1c0 8.56-6.94 15.5-15.5 15.5v1Zm-16-48h16v-1h-16v1Zm16.5-.5c0-9.113-7.387-16.5-16.5-16.5v1c8.56 0 15.5 6.94 15.5 15.5h1ZM689 337.5h16v-1h-16v1Zm16.5-.5c0-9.113-7.387-16.5-16.5-16.5v1c8.56 0 15.5 6.94 15.5 15.5h1ZM673 320.5h-16v1h16v-1Zm-16.5.5c0 9.113 7.387 16.5 16.5 16.5v-1c-8.56 0-15.5-6.94-15.5-15.5h-1Zm16.5-64.5h-16v1h16v-1Zm-16.5.5c0 9.113 7.387 16.5 16.5 16.5v-1c-8.56 0-15.5-6.94-15.5-15.5h-1Zm48 16v16h1v-16h-1Zm17 16c0-9.113-7.387-16.5-16.5-16.5v1c8.56 0 15.5 6.94 15.5 15.5h1Zm0 16v-7.68h-1V305h1Zm0-7.68V289h-1v8.32h1Z" class="path"/><path fill="#BFF589" d="M177 385v.5-.5Zm-16 16v-.5.5Zm16-64v-.5.5Zm0-16v-.5.5Zm-16 0v.5-.5Zm0 16v.5-.5Zm48 32h-.5.5Zm0-16h.5-.5Zm-16 32h-.5v.5h.5v-.5Zm-48 0v-.5h-.5v.5h.5Zm48 16v.5h.5v-.5h-.5Zm-48-80v-.5h-.5v.5h.5Zm32 63.5h-16v1h16v-1Zm-16 17h16v-1h-16v1Zm16-81h-16v1h16v-1Zm-16 17h16v-1h-16v1Zm31.5 15.5v16h1v-16h-1Zm17 16v-16h-1v16h1Zm-17 0v16h1v-16h-1Zm.5 16.5c9.113 0 16.5-7.387 16.5-16.5h-1c0 8.56-6.94 15.5-15.5 15.5v1Zm-16-48h16v-1h-16v1Zm16.5-.5c0-9.113-7.387-16.5-16.5-16.5v1c8.56 0 15.5 6.94 15.5 15.5h1ZM177 401.5h16v-1h-16v1Zm16.5-.5c0-9.113-7.387-16.5-16.5-16.5v1c8.56 0 15.5 6.94 15.5 15.5h1ZM161 384.5h-16v1h16v-1Zm-16.5.5c0 9.113 7.387 16.5 16.5 16.5v-1c-8.56 0-15.5-6.94-15.5-15.5h-1Zm16.5-64.5h-16v1h16v-1Zm-16.5.5c0 9.113 7.387 16.5 16.5 16.5v-1c-8.56 0-15.5-6.94-15.5-15.5h-1Zm48 16v16h1v-16h-1Zm17 16c0-9.113-7.387-16.5-16.5-16.5v1c8.56 0 15.5 6.94 15.5 15.5h1Zm0 16v-7.68h-1V369h1Zm0-7.68V353h-1v8.32h1Z" class="path"/><path fill="#BFF589" d="M113 385v.5-.5Zm-16 16v-.5.5Zm16-64v-.5.5Zm0-16v-.5.5Zm-16 0v.5-.5Zm0 16v.5-.5Zm48 32h-.5.5Zm0-16h.5-.5Zm-16 32h-.5v.5h.5v-.5Zm-48 0v-.5h-.5v.5h.5Zm48 16v.5h.5v-.5h-.5Zm-48-80v-.5h-.5v.5h.5Zm32 63.5H97v1h16v-1Zm-16 17h16v-1H97v1Zm16-81H97v1h16v-1Zm-16 17h16v-1H97v1Zm31.5 15.5v16h1v-16h-1Zm17 16v-16h-1v16h1Zm-17 0v16h1v-16h-1Zm.5 16.5c9.113 0 16.5-7.387 16.5-16.5h-1c0 8.56-6.94 15.5-15.5 15.5v1Zm-16-48h16v-1h-16v1Zm16.5-.5c0-9.113-7.387-16.5-16.5-16.5v1c8.56 0 15.5 6.94 15.5 15.5h1ZM113 401.5h16v-1h-16v1Zm16.5-.5c0-9.113-7.387-16.5-16.5-16.5v1c8.56 0 15.5 6.94 15.5 15.5h1ZM97 384.5H81v1h16v-1Zm-16.5.5c0 9.113 7.3873 16.5 16.5 16.5v-1c-8.5604 0-15.5-6.94-15.5-15.5h-1ZM97 320.5H81v1h16v-1Zm-16.5.5c0 9.113 7.3873 16.5 16.5 16.5v-1c-8.5604 0-15.5-6.94-15.5-15.5h-1Zm48 16v16h1v-16h-1Zm17 16c0-9.113-7.387-16.5-16.5-16.5v1c8.56 0 15.5 6.94 15.5 15.5h1Zm0 16v-7.68h-1V369h1Zm0-7.68V353h-1v8.32h1Z" class="path"/><path fill="#BFF589" d="M177 449v.5-.5Zm-16 16v-.5.5Zm16-64v-.5.5Zm0-16v-.5.5Zm-16 0v.5-.5Zm0 16v.5-.5Zm48 32h-.5.5Zm0-16h.5-.5Zm-16 32h-.5v.5h.5v-.5Zm-48 0v-.5h-.5v.5h.5Zm48 16v.5h.5v-.5h-.5Zm-48-80v-.5h-.5v.5h.5Zm32 63.5h-16v1h16v-1Zm-16 17h16v-1h-16v1Zm16-81h-16v1h16v-1Zm-16 17h16v-1h-16v1Zm31.5 15.5v16h1v-16h-1Zm17 16v-16h-1v16h1Zm-17 0v16h1v-16h-1Zm.5 16.5c9.113 0 16.5-7.387 16.5-16.5h-1c0 8.56-6.94 15.5-15.5 15.5v1Zm-16-48h16v-1h-16v1Zm16.5-.5c0-9.113-7.387-16.5-16.5-16.5v1c8.56 0 15.5 6.94 15.5 15.5h1ZM177 465.5h16v-1h-16v1Zm16.5-.5c0-9.113-7.387-16.5-16.5-16.5v1c8.56 0 15.5 6.94 15.5 15.5h1ZM161 448.5h-16v1h16v-1Zm-16.5.5c0 9.113 7.387 16.5 16.5 16.5v-1c-8.56 0-15.5-6.94-15.5-15.5h-1Zm16.5-64.5h-16v1h16v-1Zm-16.5.5c0 9.113 7.387 16.5 16.5 16.5v-1c-8.56 0-15.5-6.94-15.5-15.5h-1Zm48 16v16h1v-16h-1Zm17 16c0-9.113-7.387-16.5-16.5-16.5v1c8.56 0 15.5 6.94 15.5 15.5h1Zm0 16v-7.68h-1V433h1Zm0-7.68V417h-1v8.32h1Z" class="path"/><path fill="#BFF589" d="M113 449v.5-.5Zm-16 16v-.5.5Zm16-64v-.5.5Zm0-16v-.5.5Zm-16 0v.5-.5Zm0 16v.5-.5Zm48 32h-.5.5Zm0-16h.5-.5Zm-16 32h-.5v.5h.5v-.5Zm-48 0v-.5h-.5v.5h.5Zm48 16v.5h.5v-.5h-.5Zm-48-80v-.5h-.5v.5h.5Zm32 63.5H97v1h16v-1Zm-16 17h16v-1H97v1Zm16-81H97v1h16v-1Zm-16 17h16v-1H97v1Zm31.5 15.5v16h1v-16h-1Zm17 16v-16h-1v16h1Zm-17 0v16h1v-16h-1Zm.5 16.5c9.113 0 16.5-7.387 16.5-16.5h-1c0 8.56-6.94 15.5-15.5 15.5v1Zm-16-48h16v-1h-16v1Zm16.5-.5c0-9.113-7.387-16.5-16.5-16.5v1c8.56 0 15.5 6.94 15.5 15.5h1ZM113 465.5h16v-1h-16v1Zm16.5-.5c0-9.113-7.387-16.5-16.5-16.5v1c8.56 0 15.5 6.94 15.5 15.5h1ZM97 448.5H81v1h16v-1Zm-16.5.5c0 9.113 7.3873 16.5 16.5 16.5v-1c-8.5604 0-15.5-6.94-15.5-15.5h-1ZM97 384.5H81v1h16v-1Zm-16.5.5c0 9.113 7.3873 16.5 16.5 16.5v-1c-8.5604 0-15.5-6.94-15.5-15.5h-1Zm48 16v16h1v-16h-1Zm17 16c0-9.113-7.387-16.5-16.5-16.5v1c8.56 0 15.5 6.94 15.5 15.5h1Zm0 16v-7.68h-1V433h1Zm0-7.68V417h-1v8.32h1Z" class="path"/><path fill="#BFF589" d="M177 513v.5-.5Zm-16 16v-.5.5Zm16-64v-.5.5Zm0-16v-.5.5Zm-16 0v.5-.5Zm0 16v.5-.5Zm48 32h-.5.5Zm0-16h.5-.5Zm-16 32h-.5v.5h.5v-.5Zm-48 0v-.5h-.5v.5h.5Zm48 16v.5h.5v-.5h-.5Zm-48-80v-.5h-.5v.5h.5Zm32 63.5h-16v1h16v-1Zm-16 17h16v-1h-16v1Zm16-81h-16v1h16v-1Zm-16 17h16v-1h-16v1Zm31.5 15.5v16h1v-16h-1Zm17 16v-16h-1v16h1Zm-17 0v16h1v-16h-1Zm.5 16.5c9.113 0 16.5-7.387 16.5-16.5h-1c0 8.56-6.94 15.5-15.5 15.5v1Zm-16-48h16v-1h-16v1Zm16.5-.5c0-9.113-7.387-16.5-16.5-16.5v1c8.56 0 15.5 6.94 15.5 15.5h1ZM177 529.5h16v-1h-16v1Zm16.5-.5c0-9.113-7.387-16.5-16.5-16.5v1c8.56 0 15.5 6.94 15.5 15.5h1ZM161 512.5h-16v1h16v-1Zm-16.5.5c0 9.113 7.387 16.5 16.5 16.5v-1c-8.56 0-15.5-6.94-15.5-15.5h-1Zm16.5-64.5h-16v1h16v-1Zm-16.5.5c0 9.113 7.387 16.5 16.5 16.5v-1c-8.56 0-15.5-6.94-15.5-15.5h-1Zm48 16v16h1v-16h-1Zm17 16c0-9.113-7.387-16.5-16.5-16.5v1c8.56 0 15.5 6.94 15.5 15.5h1Zm0 16v-7.68h-1V497h1Zm0-7.68V481h-1v8.32h1Z" class="path"/><path fill="#BFF589" d="M113 513v.5-.5Zm-16 16v-.5.5Zm16-64v-.5.5Zm0-16v-.5.5Zm-16 0v.5-.5Zm0 16v.5-.5Zm48 32h-.5.5Zm0-16h.5-.5Zm-16 32h-.5v.5h.5v-.5Zm-48 0v-.5h-.5v.5h.5Zm48 16v.5h.5v-.5h-.5Zm-48-80v-.5h-.5v.5h.5Zm32 63.5H97v1h16v-1Zm-16 17h16v-1H97v1Zm16-81H97v1h16v-1Zm-16 17h16v-1H97v1Zm31.5 15.5v16h1v-16h-1Zm17 16v-16h-1v16h1Zm-17 0v16h1v-16h-1Zm.5 16.5c9.113 0 16.5-7.387 16.5-16.5h-1c0 8.56-6.94 15.5-15.5 15.5v1Zm-16-48h16v-1h-16v1Zm16.5-.5c0-9.113-7.387-16.5-16.5-16.5v1c8.56 0 15.5 6.94 15.5 15.5h1ZM113 529.5h16v-1h-16v1Zm16.5-.5c0-9.113-7.387-16.5-16.5-16.5v1c8.56 0 15.5 6.94 15.5 15.5h1ZM97 512.5H81v1h16v-1Zm-16.5.5c0 9.113 7.3873 16.5 16.5 16.5v-1c-8.5604 0-15.5-6.94-15.5-15.5h-1ZM97 448.5H81v1h16v-1Zm-16.5.5c0 9.113 7.3873 16.5 16.5 16.5v-1c-8.5604 0-15.5-6.94-15.5-15.5h-1Zm48 16v16h1v-16h-1Zm17 16c0-9.113-7.387-16.5-16.5-16.5v1c8.56 0 15.5 6.94 15.5 15.5h1Zm0 16v-7.68h-1V497h1Zm0-7.68V481h-1v8.32h1Z" class="path"/><path fill="#BFF589" d="M305 385v.5-.5Zm-16 16v-.5.5Zm16-64v-.5.5Zm0-16v-.5.5Zm-16 0v.5-.5Zm0 16v.5-.5Zm48 32h-.5.5Zm0-16h.5-.5Zm-16 32h-.5v.5h.5v-.5Zm-48 0v-.5h-.5v.5h.5Zm48 16v.5h.5v-.5h-.5Zm-48-80v-.5h-.5v.5h.5Zm32 63.5h-16v1h16v-1Zm-16 17h16v-1h-16v1Zm16-81h-16v1h16v-1Zm-16 17h16v-1h-16v1Zm31.5 15.5v16h1v-16h-1Zm17 16v-16h-1v16h1Zm-17 0v16h1v-16h-1Zm.5 16.5c9.113 0 16.5-7.387 16.5-16.5h-1c0 8.56-6.94 15.5-15.5 15.5v1Zm-16-48h16v-1h-16v1Zm16.5-.5c0-9.113-7.387-16.5-16.5-16.5v1c8.56 0 15.5 6.94 15.5 15.5h1ZM305 401.5h16v-1h-16v1Zm16.5-.5c0-9.113-7.387-16.5-16.5-16.5v1c8.56 0 15.5 6.94 15.5 15.5h1ZM289 384.5h-16v1h16v-1Zm-16.5.5c0 9.113 7.387 16.5 16.5 16.5v-1c-8.56 0-15.5-6.94-15.5-15.5h-1Zm16.5-64.5h-16v1h16v-1Zm-16.5.5c0 9.113 7.387 16.5 16.5 16.5v-1c-8.56 0-15.5-6.94-15.5-15.5h-1Zm48 16v16h1v-16h-1Zm17 16c0-9.113-7.387-16.5-16.5-16.5v1c8.56 0 15.5 6.94 15.5 15.5h1Zm0 16v-7.68h-1V369h1Zm0-7.68V353h-1v8.32h1Z" class="path"/><path fill="#BFF589" d="M305 449v.5-.5Zm-16 16v-.5.5Zm16-64v-.5.5Zm0-16v-.5.5Zm-16 0v.5-.5Zm0 16v.5-.5Zm48 32h-.5.5Zm0-16h.5-.5Zm-16 32h-.5v.5h.5v-.5Zm-48 0v-.5h-.5v.5h.5Zm48 16v.5h.5v-.5h-.5Zm-48-80v-.5h-.5v.5h.5Zm32 63.5h-16v1h16v-1Zm-16 17h16v-1h-16v1Zm16-81h-16v1h16v-1Zm-16 17h16v-1h-16v1Zm31.5 15.5v16h1v-16h-1Zm17 16v-16h-1v16h1Zm-17 0v16h1v-16h-1Zm.5 16.5c9.113 0 16.5-7.387 16.5-16.5h-1c0 8.56-6.94 15.5-15.5 15.5v1Zm-16-48h16v-1h-16v1Zm16.5-.5c0-9.113-7.387-16.5-16.5-16.5v1c8.56 0 15.5 6.94 15.5 15.5h1ZM305 465.5h16v-1h-16v1Zm16.5-.5c0-9.113-7.387-16.5-16.5-16.5v1c8.56 0 15.5 6.94 15.5 15.5h1ZM289 448.5h-16v1h16v-1Zm-16.5.5c0 9.113 7.387 16.5 16.5 16.5v-1c-8.56 0-15.5-6.94-15.5-15.5h-1Zm16.5-64.5h-16v1h16v-1Zm-16.5.5c0 9.113 7.387 16.5 16.5 16.5v-1c-8.56 0-15.5-6.94-15.5-15.5h-1Zm48 16v16h1v-16h-1Zm17 16c0-9.113-7.387-16.5-16.5-16.5v1c8.56 0 15.5 6.94 15.5 15.5h1Zm0 16v-7.68h-1V433h1Zm0-7.68V417h-1v8.32h1Z" class="path"/><path fill="#BFF589" d="M305 513v.5-.5Zm-16 16v-.5.5Zm16-64v-.5.5Zm0-16v-.5.5Zm-16 0v.5-.5Zm0 16v.5-.5Zm48 32h-.5.5Zm0-16h.5-.5Zm-16 32h-.5v.5h.5v-.5Zm-48 0v-.5h-.5v.5h.5Zm48 16v.5h.5v-.5h-.5Zm-48-80v-.5h-.5v.5h.5Zm32 63.5h-16v1h16v-1Zm-16 17h16v-1h-16v1Zm16-81h-16v1h16v-1Zm-16 17h16v-1h-16v1Zm31.5 15.5v16h1v-16h-1Zm17 16v-16h-1v16h1Zm-17 0v16h1v-16h-1Zm.5 16.5c9.113 0 16.5-7.387 16.5-16.5h-1c0 8.56-6.94 15.5-15.5 15.5v1Zm-16-48h16v-1h-16v1Zm16.5-.5c0-9.113-7.387-16.5-16.5-16.5v1c8.56 0 15.5 6.94 15.5 15.5h1ZM305 529.5h16v-1h-16v1Zm16.5-.5c0-9.113-7.387-16.5-16.5-16.5v1c8.56 0 15.5 6.94 15.5 15.5h1ZM289 512.5h-16v1h16v-1Zm-16.5.5c0 9.113 7.387 16.5 16.5 16.5v-1c-8.56 0-15.5-6.94-15.5-15.5h-1Zm16.5-64.5h-16v1h16v-1Zm-16.5.5c0 9.113 7.387 16.5 16.5 16.5v-1c-8.56 0-15.5-6.94-15.5-15.5h-1Zm48 16v16h1v-16h-1Zm17 16c0-9.113-7.387-16.5-16.5-16.5v1c8.56 0 15.5 6.94 15.5 15.5h1Zm0 16v-7.68h-1V497h1Zm0-7.68V481h-1v8.32h1Z" class="path"/><path fill="#BFF589" d="M369 385v.5-.5Zm-16 16v-.5.5Zm16-64v-.5.5Zm0-16v-.5.5Zm-16 0v.5-.5Zm0 16v.5-.5Zm48 32h-.5.5Zm0-16h.5-.5Zm-16 32h-.5v.5h.5v-.5Zm-48 0v-.5h-.5v.5h.5Zm48 16v.5h.5v-.5h-.5Zm-48-80v-.5h-.5v.5h.5Zm32 63.5h-16v1h16v-1Zm-16 17h16v-1h-16v1Zm16-81h-16v1h16v-1Zm-16 17h16v-1h-16v1Zm31.5 15.5v16h1v-16h-1Zm17 16v-16h-1v16h1Zm-17 0v16h1v-16h-1Zm.5 16.5c9.113 0 16.5-7.387 16.5-16.5h-1c0 8.56-6.94 15.5-15.5 15.5v1Zm-16-48h16v-1h-16v1Zm16.5-.5c0-9.113-7.387-16.5-16.5-16.5v1c8.56 0 15.5 6.94 15.5 15.5h1ZM369 401.5h16v-1h-16v1Zm16.5-.5c0-9.113-7.387-16.5-16.5-16.5v1c8.56 0 15.5 6.94 15.5 15.5h1ZM353 384.5h-16v1h16v-1Zm-16.5.5c0 9.113 7.387 16.5 16.5 16.5v-1c-8.56 0-15.5-6.94-15.5-15.5h-1Zm16.5-64.5h-16v1h16v-1Zm-16.5.5c0 9.113 7.387 16.5 16.5 16.5v-1c-8.56 0-15.5-6.94-15.5-15.5h-1Zm48 16v16h1v-16h-1Zm17 16c0-9.113-7.387-16.5-16.5-16.5v1c8.56 0 15.5 6.94 15.5 15.5h1Zm0 16v-7.68h-1V369h1Zm0-7.68V353h-1v8.32h1Z" class="path"/><path fill="#BFF589" d="M433 385v.5-.5Zm-16 16v-.5.5Zm16-64v-.5.5Zm0-16v-.5.5Zm-16 0v.5-.5Zm0 16v.5-.5Zm48 32h-.5.5Zm0-16h.5-.5Zm-16 32h-.5v.5h.5v-.5Zm-48 0v-.5h-.5v.5h.5Zm48 16v.5h.5v-.5h-.5Zm-48-80v-.5h-.5v.5h.5Zm32 63.5h-16v1h16v-1Zm-16 17h16v-1h-16v1Zm16-81h-16v1h16v-1Zm-16 17h16v-1h-16v1Zm31.5 15.5v16h1v-16h-1Zm17 16v-16h-1v16h1Zm-17 0v16h1v-16h-1Zm.5 16.5c9.113 0 16.5-7.387 16.5-16.5h-1c0 8.56-6.94 15.5-15.5 15.5v1Zm-16-48h16v-1h-16v1Zm16.5-.5c0-9.113-7.387-16.5-16.5-16.5v1c8.56 0 15.5 6.94 15.5 15.5h1ZM433 401.5h16v-1h-16v1Zm16.5-.5c0-9.113-7.387-16.5-16.5-16.5v1c8.56 0 15.5 6.94 15.5 15.5h1ZM417 384.5h-16v1h16v-1Zm-16.5.5c0 9.113 7.387 16.5 16.5 16.5v-1c-8.56 0-15.5-6.94-15.5-15.5h-1Zm16.5-64.5h-16v1h16v-1Zm-16.5.5c0 9.113 7.387 16.5 16.5 16.5v-1c-8.56 0-15.5-6.94-15.5-15.5h-1Zm48 16v16h1v-16h-1Zm17 16c0-9.113-7.387-16.5-16.5-16.5v1c8.56 0 15.5 6.94 15.5 15.5h1Zm0 16v-7.68h-1V369h1Zm0-7.68V353h-1v8.32h1Z" class="path"/><path fill="#BFF589" d="M497 385v.5-.5Zm-16 16v-.5.5Zm16-64v-.5.5Zm0-16v-.5.5Zm-16 0v.5-.5Zm0 16v.5-.5Zm48 32h-.5.5Zm0-16h.5-.5Zm-16 32h-.5v.5h.5v-.5Zm-48 0v-.5h-.5v.5h.5Zm48 16v.5h.5v-.5h-.5Zm-48-80v-.5h-.5v.5h.5Zm32 63.5h-16v1h16v-1Zm-16 17h16v-1h-16v1Zm16-81h-16v1h16v-1Zm-16 17h16v-1h-16v1Zm31.5 15.5v16h1v-16h-1Zm17 16v-16h-1v16h1Zm-17 0v16h1v-16h-1Zm.5 16.5c9.113 0 16.5-7.387 16.5-16.5h-1c0 8.56-6.94 15.5-15.5 15.5v1Zm-16-48h16v-1h-16v1Zm16.5-.5c0-9.113-7.387-16.5-16.5-16.5v1c8.56 0 15.5 6.94 15.5 15.5h1ZM497 401.5h16v-1h-16v1Zm16.5-.5c0-9.113-7.387-16.5-16.5-16.5v1c8.56 0 15.5 6.94 15.5 15.5h1ZM481 384.5h-16v1h16v-1Zm-16.5.5c0 9.113 7.387 16.5 16.5 16.5v-1c-8.56 0-15.5-6.94-15.5-15.5h-1Zm16.5-64.5h-16v1h16v-1Zm-16.5.5c0 9.113 7.387 16.5 16.5 16.5v-1c-8.56 0-15.5-6.94-15.5-15.5h-1Zm48 16v16h1v-16h-1Zm17 16c0-9.113-7.387-16.5-16.5-16.5v1c8.56 0 15.5 6.94 15.5 15.5h1Zm0 16v-7.68h-1V369h1Zm0-7.68V353h-1v8.32h1Z" class="path"/><path fill="#BFF589" d="M561 145v-.5.5Zm-16-16v.5-.5Zm16 64v.5-.5Zm0 16v.5-.5Zm-16 0v-.5.5Zm0-16v-.5.5Zm48-32h-.5.5Zm0 16h.5-.5Zm-16-32h-.5v-.5h.5v.5Zm-48 0v.5h-.5v-.5h.5Zm48-16v-.5h.5v.5h-.5Zm-48 80v.5h-.5v-.5h.5Zm32-63.5h-16v-1h16v1Zm-16-17h16v1h-16v-1Zm16 81h-16v-1h16v1Zm-16-17h16v1h-16v-1Zm31.5-15.5v-16h1v16h-1Zm17-16v16h-1v-16h1Zm-17 0v-16h1v16h-1Zm.5-16.5c9.113 0 16.5 7.387 16.5 16.5h-1c0-8.56-6.94-15.5-15.5-15.5v-1Zm-16 48h16v1h-16v-1Zm16.5.5c0 9.113-7.387 16.5-16.5 16.5v-1c8.56 0 15.5-6.94 15.5-15.5h1ZM561 128.5h16v1h-16v-1Zm16.5.5c0 9.113-7.387 16.5-16.5 16.5v-1c8.56 0 15.5-6.94 15.5-15.5h1ZM545 145.5h-16v-1h16v1Zm-16.5-.5c0-9.113 7.387-16.5 16.5-16.5v1c-8.56 0-15.5 6.94-15.5 15.5h-1Zm16.5 64.5h-16v-1h16v1Zm-16.5-.5c0-9.113 7.387-16.5 16.5-16.5v1c-8.56 0-15.5 6.94-15.5 15.5h-1Zm48-16v-16h1v16h-1Zm17-16c0 9.113-7.387 16.5-16.5 16.5v-1c8.56 0 15.5-6.94 15.5-15.5h1Zm0-16v7.68h-1V161h1Zm0 7.68V177h-1v-8.32h1Z" class="path"/><path fill="#BFF589" d="M625 385v.5-.5Zm-16 16v-.5.5Zm16-64v-.5.5Zm0-16v-.5.5Zm-16 0v.5-.5Zm0 16v.5-.5Zm48 32h-.5.5Zm0-16h.5-.5Zm-16 32h-.5v.5h.5v-.5Zm-48 0v-.5h-.5v.5h.5Zm48 16v.5h.5v-.5h-.5Zm-48-80v-.5h-.5v.5h.5Zm32 63.5h-16v1h16v-1Zm-16 17h16v-1h-16v1Zm16-81h-16v1h16v-1Zm-16 17h16v-1h-16v1Zm31.5 15.5v16h1v-16h-1Zm17 16v-16h-1v16h1Zm-17 0v16h1v-16h-1Zm.5 16.5c9.113 0 16.5-7.387 16.5-16.5h-1c0 8.56-6.94 15.5-15.5 15.5v1Zm-16-48h16v-1h-16v1Zm16.5-.5c0-9.113-7.387-16.5-16.5-16.5v1c8.56 0 15.5 6.94 15.5 15.5h1ZM625 401.5h16v-1h-16v1Zm16.5-.5c0-9.113-7.387-16.5-16.5-16.5v1c8.56 0 15.5 6.94 15.5 15.5h1ZM609 384.5h-16v1h16v-1Zm-16.5.5c0 9.113 7.387 16.5 16.5 16.5v-1c-8.56 0-15.5-6.94-15.5-15.5h-1Zm16.5-64.5h-16v1h16v-1Zm-16.5.5c0 9.113 7.387 16.5 16.5 16.5v-1c-8.56 0-15.5-6.94-15.5-15.5h-1Zm48 16v16h1v-16h-1Zm17 16c0-9.113-7.387-16.5-16.5-16.5v1c8.56 0 15.5 6.94 15.5 15.5h1Zm0 16v-7.68h-1V369h1Zm0-7.68V353h-1v8.32h1Z" class="path"/><path fill="#BFF589" d="M689 385v.5-.5Zm-16 16v-.5.5Zm16-64v-.5.5Zm0-16v-.5.5Zm-16 0v.5-.5Zm0 16v.5-.5Zm48 32h-.5.5Zm0-16h.5-.5Zm-16 32h-.5v.5h.5v-.5Zm-48 0v-.5h-.5v.5h.5Zm48 16v.5h.5v-.5h-.5Zm-48-80v-.5h-.5v.5h.5Zm32 63.5h-16v1h16v-1Zm-16 17h16v-1h-16v1Zm16-81h-16v1h16v-1Zm-16 17h16v-1h-16v1Zm31.5 15.5v16h1v-16h-1Zm17 16v-16h-1v16h1Zm-17 0v16h1v-16h-1Zm.5 16.5c9.113 0 16.5-7.387 16.5-16.5h-1c0 8.56-6.94 15.5-15.5 15.5v1Zm-16-48h16v-1h-16v1Zm16.5-.5c0-9.113-7.387-16.5-16.5-16.5v1c8.56 0 15.5 6.94 15.5 15.5h1ZM689 401.5h16v-1h-16v1Zm16.5-.5c0-9.113-7.387-16.5-16.5-16.5v1c8.56 0 15.5 6.94 15.5 15.5h1ZM673 384.5h-16v1h16v-1Zm-16.5.5c0 9.113 7.387 16.5 16.5 16.5v-1c-8.56 0-15.5-6.94-15.5-15.5h-1Zm16.5-64.5h-16v1h16v-1Zm-16.5.5c0 9.113 7.387 16.5 16.5 16.5v-1c-8.56 0-15.5-6.94-15.5-15.5h-1Zm48 16v16h1v-16h-1Zm17 16c0-9.113-7.387-16.5-16.5-16.5v1c8.56 0 15.5 6.94 15.5 15.5h1Zm0 16v-7.68h-1V369h1Zm0-7.68V353h-1v8.32h1Z" class="path"/><path fill="#BFF589" d="M369 449v.5-.5Zm-16 16v-.5.5Zm16-64v-.5.5Zm0-16v-.5.5Zm-16 0v.5-.5Zm0 16v.5-.5Zm48 32h-.5.5Zm0-16h.5-.5Zm-16 32h-.5v.5h.5v-.5Zm-48 0v-.5h-.5v.5h.5Zm48 16v.5h.5v-.5h-.5Zm-48-80v-.5h-.5v.5h.5Zm32 63.5h-16v1h16v-1Zm-16 17h16v-1h-16v1Zm16-81h-16v1h16v-1Zm-16 17h16v-1h-16v1Zm31.5 15.5v16h1v-16h-1Zm17 16v-16h-1v16h1Zm-17 0v16h1v-16h-1Zm.5 16.5c9.113 0 16.5-7.387 16.5-16.5h-1c0 8.56-6.94 15.5-15.5 15.5v1Zm-16-48h16v-1h-16v1Zm16.5-.5c0-9.113-7.387-16.5-16.5-16.5v1c8.56 0 15.5 6.94 15.5 15.5h1ZM369 465.5h16v-1h-16v1Zm16.5-.5c0-9.113-7.387-16.5-16.5-16.5v1c8.56 0 15.5 6.94 15.5 15.5h1ZM353 448.5h-16v1h16v-1Zm-16.5.5c0 9.113 7.387 16.5 16.5 16.5v-1c-8.56 0-15.5-6.94-15.5-15.5h-1Zm16.5-64.5h-16v1h16v-1Zm-16.5.5c0 9.113 7.387 16.5 16.5 16.5v-1c-8.56 0-15.5-6.94-15.5-15.5h-1Zm48 16v16h1v-16h-1Zm17 16c0-9.113-7.387-16.5-16.5-16.5v1c8.56 0 15.5 6.94 15.5 15.5h1Zm0 16v-7.68h-1V433h1Zm0-7.68V417h-1v8.32h1Z" class="path"/><path fill="#BFF589" d="M369 513v.5-.5Zm-16 16v-.5.5Zm16-64v-.5.5Zm0-16v-.5.5Zm-16 0v.5-.5Zm0 16v.5-.5Zm48 32h-.5.5Zm0-16h.5-.5Zm-16 32h-.5v.5h.5v-.5Zm-48 0v-.5h-.5v.5h.5Zm48 16v.5h.5v-.5h-.5Zm-48-80v-.5h-.5v.5h.5Zm32 63.5h-16v1h16v-1Zm-16 17h16v-1h-16v1Zm16-81h-16v1h16v-1Zm-16 17h16v-1h-16v1Zm31.5 15.5v16h1v-16h-1Zm17 16v-16h-1v16h1Zm-17 0v16h1v-16h-1Zm.5 16.5c9.113 0 16.5-7.387 16.5-16.5h-1c0 8.56-6.94 15.5-15.5 15.5v1Zm-16-48h16v-1h-16v1Zm16.5-.5c0-9.113-7.387-16.5-16.5-16.5v1c8.56 0 15.5 6.94 15.5 15.5h1ZM369 529.5h16v-1h-16v1Zm16.5-.5c0-9.113-7.387-16.5-16.5-16.5v1c8.56 0 15.5 6.94 15.5 15.5h1ZM353 512.5h-16v1h16v-1Zm-16.5.5c0 9.113 7.387 16.5 16.5 16.5v-1c-8.56 0-15.5-6.94-15.5-15.5h-1Zm16.5-64.5h-16v1h16v-1Zm-16.5.5c0 9.113 7.387 16.5 16.5 16.5v-1c-8.56 0-15.5-6.94-15.5-15.5h-1Zm48 16v16h1v-16h-1Zm17 16c0-9.113-7.387-16.5-16.5-16.5v1c8.56 0 15.5 6.94 15.5 15.5h1Zm0 16v-7.68h-1V497h1Zm0-7.68V481h-1v8.32h1Z" class="path"/><path fill="#BFF589" d="M433 449v.5-.5Zm-16 16v-.5.5Zm16-64v-.5.5Zm0-16v-.5.5Zm-16 0v.5-.5Zm0 16v.5-.5Zm48 32h-.5.5Zm0-16h.5-.5Zm-16 32h-.5v.5h.5v-.5Zm-48 0v-.5h-.5v.5h.5Zm48 16v.5h.5v-.5h-.5Zm-48-80v-.5h-.5v.5h.5Zm32 63.5h-16v1h16v-1Zm-16 17h16v-1h-16v1Zm16-81h-16v1h16v-1Zm-16 17h16v-1h-16v1Zm31.5 15.5v16h1v-16h-1Zm17 16v-16h-1v16h1Zm-17 0v16h1v-16h-1Zm.5 16.5c9.113 0 16.5-7.387 16.5-16.5h-1c0 8.56-6.94 15.5-15.5 15.5v1Zm-16-48h16v-1h-16v1Zm16.5-.5c0-9.113-7.387-16.5-16.5-16.5v1c8.56 0 15.5 6.94 15.5 15.5h1ZM433 465.5h16v-1h-16v1Zm16.5-.5c0-9.113-7.387-16.5-16.5-16.5v1c8.56 0 15.5 6.94 15.5 15.5h1ZM417 448.5h-16v1h16v-1Zm-16.5.5c0 9.113 7.387 16.5 16.5 16.5v-1c-8.56 0-15.5-6.94-15.5-15.5h-1Zm16.5-64.5h-16v1h16v-1Zm-16.5.5c0 9.113 7.387 16.5 16.5 16.5v-1c-8.56 0-15.5-6.94-15.5-15.5h-1Zm48 16v16h1v-16h-1Zm17 16c0-9.113-7.387-16.5-16.5-16.5v1c8.56 0 15.5 6.94 15.5 15.5h1Zm0 16v-7.68h-1V433h1Zm0-7.68V417h-1v8.32h1Z" class="path"/><path fill="#BFF589" d="M433 513v.5-.5Zm-16 16v-.5.5Zm16-64v-.5.5Zm0-16v-.5.5Zm-16 0v.5-.5Zm0 16v.5-.5Zm48 32h-.5.5Zm0-16h.5-.5Zm-16 32h-.5v.5h.5v-.5Zm-48 0v-.5h-.5v.5h.5Zm48 16v.5h.5v-.5h-.5Zm-48-80v-.5h-.5v.5h.5Zm32 63.5h-16v1h16v-1Zm-16 17h16v-1h-16v1Zm16-81h-16v1h16v-1Zm-16 17h16v-1h-16v1Zm31.5 15.5v16h1v-16h-1Zm17 16v-16h-1v16h1Zm-17 0v16h1v-16h-1Zm.5 16.5c9.113 0 16.5-7.387 16.5-16.5h-1c0 8.56-6.94 15.5-15.5 15.5v1Zm-16-48h16v-1h-16v1Zm16.5-.5c0-9.113-7.387-16.5-16.5-16.5v1c8.56 0 15.5 6.94 15.5 15.5h1ZM433 529.5h16v-1h-16v1Zm16.5-.5c0-9.113-7.387-16.5-16.5-16.5v1c8.56 0 15.5 6.94 15.5 15.5h1ZM417 512.5h-16v1h16v-1Zm-16.5.5c0 9.113 7.387 16.5 16.5 16.5v-1c-8.56 0-15.5-6.94-15.5-15.5h-1Zm16.5-64.5h-16v1h16v-1Zm-16.5.5c0 9.113 7.387 16.5 16.5 16.5v-1c-8.56 0-15.5-6.94-15.5-15.5h-1Zm48 16v16h1v-16h-1Zm17 16c0-9.113-7.387-16.5-16.5-16.5v1c8.56 0 15.5 6.94 15.5 15.5h1Zm0 16v-7.68h-1V497h1Zm0-7.68V481h-1v8.32h1Z" class="path"/><path fill="#BFF589" d="M497 449v.5-.5Zm-16 16v-.5.5Zm16-64v-.5.5Zm0-16v-.5.5Zm-16 0v.5-.5Zm0 16v.5-.5Zm48 32h-.5.5Zm0-16h.5-.5Zm-16 32h-.5v.5h.5v-.5Zm-48 0v-.5h-.5v.5h.5Zm48 16v.5h.5v-.5h-.5Zm-48-80v-.5h-.5v.5h.5Zm32 63.5h-16v1h16v-1Zm-16 17h16v-1h-16v1Zm16-81h-16v1h16v-1Zm-16 17h16v-1h-16v1Zm31.5 15.5v16h1v-16h-1Zm17 16v-16h-1v16h1Zm-17 0v16h1v-16h-1Zm.5 16.5c9.113 0 16.5-7.387 16.5-16.5h-1c0 8.56-6.94 15.5-15.5 15.5v1Zm-16-48h16v-1h-16v1Zm16.5-.5c0-9.113-7.387-16.5-16.5-16.5v1c8.56 0 15.5 6.94 15.5 15.5h1ZM497 465.5h16v-1h-16v1Zm16.5-.5c0-9.113-7.387-16.5-16.5-16.5v1c8.56 0 15.5 6.94 15.5 15.5h1ZM481 448.5h-16v1h16v-1Zm-16.5.5c0 9.113 7.387 16.5 16.5 16.5v-1c-8.56 0-15.5-6.94-15.5-15.5h-1Zm16.5-64.5h-16v1h16v-1Zm-16.5.5c0 9.113 7.387 16.5 16.5 16.5v-1c-8.56 0-15.5-6.94-15.5-15.5h-1Zm48 16v16h1v-16h-1Zm17 16c0-9.113-7.387-16.5-16.5-16.5v1c8.56 0 15.5 6.94 15.5 15.5h1Zm0 16v-7.68h-1V433h1Zm0-7.68V417h-1v8.32h1Z" class="path"/><path fill="#BFF589" d="M497 513v.5-.5Zm-16 16v-.5.5Zm16-64v-.5.5Zm0-16v-.5.5Zm-16 0v.5-.5Zm0 16v.5-.5Zm48 32h-.5.5Zm0-16h.5-.5Zm-16 32h-.5v.5h.5v-.5Zm-48 0v-.5h-.5v.5h.5Zm48 16v.5h.5v-.5h-.5Zm-48-80v-.5h-.5v.5h.5Zm32 63.5h-16v1h16v-1Zm-16 17h16v-1h-16v1Zm16-81h-16v1h16v-1Zm-16 17h16v-1h-16v1Zm31.5 15.5v16h1v-16h-1Zm17 16v-16h-1v16h1Zm-17 0v16h1v-16h-1Zm.5 16.5c9.113 0 16.5-7.387 16.5-16.5h-1c0 8.56-6.94 15.5-15.5 15.5v1Zm-16-48h16v-1h-16v1Zm16.5-.5c0-9.113-7.387-16.5-16.5-16.5v1c8.56 0 15.5 6.94 15.5 15.5h1ZM497 529.5h16v-1h-16v1Zm16.5-.5c0-9.113-7.387-16.5-16.5-16.5v1c8.56 0 15.5 6.94 15.5 15.5h1ZM481 512.5h-16v1h16v-1Zm-16.5.5c0 9.113 7.387 16.5 16.5 16.5v-1c-8.56 0-15.5-6.94-15.5-15.5h-1Zm16.5-64.5h-16v1h16v-1Zm-16.5.5c0 9.113 7.387 16.5 16.5 16.5v-1c-8.56 0-15.5-6.94-15.5-15.5h-1Zm48 16v16h1v-16h-1Zm17 16c0-9.113-7.387-16.5-16.5-16.5v1c8.56 0 15.5 6.94 15.5 15.5h1Zm0 16v-7.68h-1V497h1Zm0-7.68V481h-1v8.32h1Z" class="path"/><path fill="#BFF589" d="M561 81v-.5.5Zm-16-16v.5-.5Zm16 64v.5-.5Zm0 16v.5-.5Zm-16 0v-.5.5Zm0-16v-.5.5Zm48-32h-.5.5Zm0 16h.5-.5Zm-16-32h-.5v-.5h.5v.5Zm-48 0v.5h-.5V81h.5Zm48-16v-.5h.5v.5h-.5Zm-48 80v.5h-.5v-.5h.5Zm32-63.5h-16v-1h16v1Zm-16-17h16v1h-16v-1Zm16 81h-16v-1h16v1Zm-16-17h16v1h-16v-1Zm31.5-15.5V97h1v16h-1Zm17-16v16h-1V97h1Zm-17 0V81h1v16h-1Zm.5-16.5c9.113 0 16.5 7.3873 16.5 16.5h-1c0-8.5604-6.94-15.5-15.5-15.5v-1Zm-16 48h16v1h-16v-1Zm16.5.5c0 9.113-7.387 16.5-16.5 16.5v-1c8.56 0 15.5-6.94 15.5-15.5h1ZM561 64.5h16v1h-16v-1Zm16.5.5c0 9.1127-7.387 16.5-16.5 16.5v-1c8.56 0 15.5-6.9396 15.5-15.5h1ZM545 81.5h-16v-1h16v1Zm-16.5-.5c0-9.1127 7.387-16.5 16.5-16.5v1c-8.56 0-15.5 6.9396-15.5 15.5h-1Zm16.5 64.5h-16v-1h16v1Zm-16.5-.5c0-9.113 7.387-16.5 16.5-16.5v1c-8.56 0-15.5 6.94-15.5 15.5h-1Zm48-16v-16h1v16h-1Zm17-16c0 9.113-7.387 16.5-16.5 16.5v-1c8.56 0 15.5-6.94 15.5-15.5h1Zm0-16v7.68h-1V97h1Zm0 7.68V113h-1v-8.32h1Z" class="path"/><path fill="#BFF589" d="M561 17v-.5.5ZM545 1v.5V1Zm16 64v.5-.5Zm0 16v.5-.5Zm-16 0v-.5.5Zm0-16v-.5.5Zm48-32h-.5.5Zm0 16h.5-.5Zm-16-32h-.5v-.5h.5v.5Zm-48 0v.5h-.5V17h.5Zm48-16V.5h.5V1h-.5Zm-48 80v.5h-.5V81h.5Zm32-63.5h-16v-1h16v1Zm-16-17h16v1h-16v-1Zm16 81h-16v-1h16v1Zm-16-17h16v1h-16v-1ZM576.5 49V33h1v16h-1Zm17-16v16h-1V33h1Zm-17 0V17h1v16h-1Zm.5-16.5c9.113 0 16.5 7.3873 16.5 16.5h-1c0-8.5604-6.94-15.5-15.5-15.5v-1Zm-16 48h16v1h-16v-1Zm16.5.5c0 9.1127-7.387 16.5-16.5 16.5v-1c8.56 0 15.5-6.9396 15.5-15.5h1ZM561 .5h16v1h-16v-1Zm16.5.5c0 9.1127-7.387 16.5-16.5 16.5v-1c8.56 0 15.5-6.93958 15.5-15.5h1ZM545 17.5h-16v-1h16v1Zm-16.5-.5c0-9.1127 7.387-16.5 16.5-16.5v1c-8.56 0-15.5 6.93958-15.5 15.5h-1ZM545 81.5h-16v-1h16v1Zm-16.5-.5c0-9.1127 7.387-16.5 16.5-16.5v1c-8.56 0-15.5 6.9396-15.5 15.5h-1Zm48-16V49h1v16h-1Zm17-16c0 9.1127-7.387 16.5-16.5 16.5v-1c8.56 0 15.5-6.9396 15.5-15.5h1Zm0-16v7.68h-1V33h1Zm0 7.68V49h-1v-8.32h1Z" class="path"/><path fill="#BFF589" d="M625 449v.5-.5Zm-16 16v-.5.5Zm16-64v-.5.5Zm0-16v-.5.5Zm-16 0v.5-.5Zm0 16v.5-.5Zm48 32h-.5.5Zm0-16h.5-.5Zm-16 32h-.5v.5h.5v-.5Zm-48 0v-.5h-.5v.5h.5Zm48 16v.5h.5v-.5h-.5Zm-48-80v-.5h-.5v.5h.5Zm32 63.5h-16v1h16v-1Zm-16 17h16v-1h-16v1Zm16-81h-16v1h16v-1Zm-16 17h16v-1h-16v1Zm31.5 15.5v16h1v-16h-1Zm17 16v-16h-1v16h1Zm-17 0v16h1v-16h-1Zm.5 16.5c9.113 0 16.5-7.387 16.5-16.5h-1c0 8.56-6.94 15.5-15.5 15.5v1Zm-16-48h16v-1h-16v1Zm16.5-.5c0-9.113-7.387-16.5-16.5-16.5v1c8.56 0 15.5 6.94 15.5 15.5h1ZM625 465.5h16v-1h-16v1Zm16.5-.5c0-9.113-7.387-16.5-16.5-16.5v1c8.56 0 15.5 6.94 15.5 15.5h1ZM609 448.5h-16v1h16v-1Zm-16.5.5c0 9.113 7.387 16.5 16.5 16.5v-1c-8.56 0-15.5-6.94-15.5-15.5h-1Zm16.5-64.5h-16v1h16v-1Zm-16.5.5c0 9.113 7.387 16.5 16.5 16.5v-1c-8.56 0-15.5-6.94-15.5-15.5h-1Zm48 16v16h1v-16h-1Zm17 16c0-9.113-7.387-16.5-16.5-16.5v1c8.56 0 15.5 6.94 15.5 15.5h1Zm0 16v-7.68h-1V433h1Zm0-7.68V417h-1v8.32h1Z" class="path"/><path fill="#BFF589" d="M625 513v.5-.5Zm-16 16v-.5.5Zm16-64v-.5.5Zm0-16v-.5.5Zm-16 0v.5-.5Zm0 16v.5-.5Zm48 32h-.5.5Zm0-16h.5-.5Zm-16 32h-.5v.5h.5v-.5Zm-48 0v-.5h-.5v.5h.5Zm48 16v.5h.5v-.5h-.5Zm-48-80v-.5h-.5v.5h.5Zm32 63.5h-16v1h16v-1Zm-16 17h16v-1h-16v1Zm16-81h-16v1h16v-1Zm-16 17h16v-1h-16v1Zm31.5 15.5v16h1v-16h-1Zm17 16v-16h-1v16h1Zm-17 0v16h1v-16h-1Zm.5 16.5c9.113 0 16.5-7.387 16.5-16.5h-1c0 8.56-6.94 15.5-15.5 15.5v1Zm-16-48h16v-1h-16v1Zm16.5-.5c0-9.113-7.387-16.5-16.5-16.5v1c8.56 0 15.5 6.94 15.5 15.5h1ZM625 529.5h16v-1h-16v1Zm16.5-.5c0-9.113-7.387-16.5-16.5-16.5v1c8.56 0 15.5 6.94 15.5 15.5h1ZM609 512.5h-16v1h16v-1Zm-16.5.5c0 9.113 7.387 16.5 16.5 16.5v-1c-8.56 0-15.5-6.94-15.5-15.5h-1Zm16.5-64.5h-16v1h16v-1Zm-16.5.5c0 9.113 7.387 16.5 16.5 16.5v-1c-8.56 0-15.5-6.94-15.5-15.5h-1Zm48 16v16h1v-16h-1Zm17 16c0-9.113-7.387-16.5-16.5-16.5v1c8.56 0 15.5 6.94 15.5 15.5h1Zm0 16v-7.68h-1V497h1Zm0-7.68V481h-1v8.32h1Z" class="path"/><path fill="#BFF589" d="M689 449v.5-.5Zm-16 16v-.5.5Zm16-64v-.5.5Zm0-16v-.5.5Zm-16 0v.5-.5Zm0 16v.5-.5Zm48 32h-.5.5Zm0-16h.5-.5Zm-16 32h-.5v.5h.5v-.5Zm-48 0v-.5h-.5v.5h.5Zm48 16v.5h.5v-.5h-.5Zm-48-80v-.5h-.5v.5h.5Zm32 63.5h-16v1h16v-1Zm-16 17h16v-1h-16v1Zm16-81h-16v1h16v-1Zm-16 17h16v-1h-16v1Zm31.5 15.5v16h1v-16h-1Zm17 16v-16h-1v16h1Zm-17 0v16h1v-16h-1Zm.5 16.5c9.113 0 16.5-7.387 16.5-16.5h-1c0 8.56-6.94 15.5-15.5 15.5v1Zm-16-48h16v-1h-16v1Zm16.5-.5c0-9.113-7.387-16.5-16.5-16.5v1c8.56 0 15.5 6.94 15.5 15.5h1ZM689 465.5h16v-1h-16v1Zm16.5-.5c0-9.113-7.387-16.5-16.5-16.5v1c8.56 0 15.5 6.94 15.5 15.5h1ZM673 448.5h-16v1h16v-1Zm-16.5.5c0 9.113 7.387 16.5 16.5 16.5v-1c-8.56 0-15.5-6.94-15.5-15.5h-1Zm16.5-64.5h-16v1h16v-1Zm-16.5.5c0 9.113 7.387 16.5 16.5 16.5v-1c-8.56 0-15.5-6.94-15.5-15.5h-1Zm48 16v16h1v-16h-1Zm17 16c0-9.113-7.387-16.5-16.5-16.5v1c8.56 0 15.5 6.94 15.5 15.5h1Zm0 16v-7.68h-1V433h1Zm0-7.68V417h-1v8.32h1Z" class="path"/><path fill="#BFF589" d="M689 513v.5-.5Zm-16 16v-.5.5Zm16-64v-.5.5Zm0-16v-.5.5Zm-16 0v.5-.5Zm0 16v.5-.5Zm48 32h-.5.5Zm0-16h.5-.5Zm-16 32h-.5v.5h.5v-.5Zm-48 0v-.5h-.5v.5h.5Zm48 16v.5h.5v-.5h-.5Zm-48-80v-.5h-.5v.5h.5Zm32 63.5h-16v1h16v-1Zm-16 17h16v-1h-16v1Zm16-81h-16v1h16v-1Zm-16 17h16v-1h-16v1Zm31.5 15.5v16h1v-16h-1Zm17 16v-16h-1v16h1Zm-17 0v16h1v-16h-1Zm.5 16.5c9.113 0 16.5-7.387 16.5-16.5h-1c0 8.56-6.94 15.5-15.5 15.5v1Zm-16-48h16v-1h-16v1Zm16.5-.5c0-9.113-7.387-16.5-16.5-16.5v1c8.56 0 15.5 6.94 15.5 15.5h1ZM689 529.5h16v-1h-16v1Zm16.5-.5c0-9.113-7.387-16.5-16.5-16.5v1c8.56 0 15.5 6.94 15.5 15.5h1ZM673 512.5h-16v1h16v-1Zm-16.5.5c0 9.113 7.387 16.5 16.5 16.5v-1c-8.56 0-15.5-6.94-15.5-15.5h-1Zm16.5-64.5h-16v1h16v-1Zm-16.5.5c0 9.113 7.387 16.5 16.5 16.5v-1c-8.56 0-15.5-6.94-15.5-15.5h-1Zm48 16v16h1v-16h-1Zm17 16c0-9.113-7.387-16.5-16.5-16.5v1c8.56 0 15.5 6.94 15.5 15.5h1Zm0 16v-7.68h-1V497h1Zm0-7.68V481h-1v8.32h1Z" class="path"/><path fill="#BFF589" d="M49 449v.5-.5Zm-16 16v-.5.5Zm16-64v-.5.5Zm0-16v-.5.5Zm-16 0v.5-.5Zm0 16v.5-.5Zm48 32h-.5.5Zm0-16h.5-.5Zm-80 0H.5 1Zm0 16h.5H1Zm16 0h.5-.5Zm0-16h-.5.5Zm48 32h-.5v.5h.5v-.5Zm-48-48h.5v-.5H17v.5Zm48 64v.5h.5v-.5H65Zm-48-80v-.5h-.5v.5h.5Zm32 63.5H33v1h16v-1Zm-16 17h16v-1H33v1Zm16-81H33v1h16v-1Zm-16 17h16v-1H33v1ZM64.5 417v16h1v-16h-1Zm17 16v-16h-1v16h1Zm-81-16v16h1v-16h-1Zm17 16v-16h-1v16h1Zm47 0v16h1v-16h-1Zm.5 16.5c9.1127 0 16.5-7.387 16.5-16.5h-1c0 8.56-6.9396 15.5-15.5 15.5v1Zm-47.5-.5v-16h-1v16h1Zm-17-16c0 9.113 7.3873 16.5 16.5 16.5v-1c-8.56041 0-15.5-6.94-15.5-15.5h-1Zm17-16v-16h-1v16h1Zm-.5-16.5C7.8873 400.5.5 407.887.5 417h1c0-8.56 6.93959-15.5 15.5-15.5v-1Zm32 1h16v-1H49v1Zm16.5-.5c0-9.113-7.3873-16.5-16.5-16.5v1c8.5604 0 15.5 6.94 15.5 15.5h1ZM49 465.5h16v-1H49v1Zm16.5-.5c0-9.113-7.3873-16.5-16.5-16.5v1c8.5604 0 15.5 6.94 15.5 15.5h1ZM33 448.5H17v1h16v-1Zm-16.5.5c0 9.113 7.3873 16.5 16.5 16.5v-1c-8.5604 0-15.5-6.94-15.5-15.5h-1ZM33 384.5H17v1h16v-1Zm-16.5.5c0 9.113 7.3873 16.5 16.5 16.5v-1c-8.5604 0-15.5-6.94-15.5-15.5h-1Zm48 16v16h1v-16h-1Zm17 16c0-9.113-7.3873-16.5-16.5-16.5v1c8.5604 0 15.5 6.94 15.5 15.5h1Zm0 16v-7.68h-1V433h1Zm0-7.68V417h-1v8.32h1Z" class="path"/><path fill="#BFF589" d="M49 513v.5-.5Zm-16 16v-.5.5Zm16-64v-.5.5Zm0-16v-.5.5Zm-16 0v.5-.5Zm0 16v.5-.5Zm48 32h-.5.5Zm0-16h.5-.5Zm-80 0H.5 1Zm0 16h.5H1Zm16 0h.5-.5Zm0-16h-.5.5Zm48 32h-.5v.5h.5v-.5Zm-48-48h.5v-.5H17v.5Zm48 64v.5h.5v-.5H65Zm-48-80v-.5h-.5v.5h.5Zm32 63.5H33v1h16v-1Zm-16 17h16v-1H33v1Zm16-81H33v1h16v-1Zm-16 17h16v-1H33v1ZM64.5 481v16h1v-16h-1Zm17 16v-16h-1v16h1Zm-81-16v16h1v-16h-1Zm17 16v-16h-1v16h1Zm47 0v16h1v-16h-1Zm.5 16.5c9.1127 0 16.5-7.387 16.5-16.5h-1c0 8.56-6.9396 15.5-15.5 15.5v1Zm-47.5-.5v-16h-1v16h1Zm-17-16c0 9.113 7.3873 16.5 16.5 16.5v-1c-8.56041 0-15.5-6.94-15.5-15.5h-1Zm17-16v-16h-1v16h1Zm-.5-16.5C7.8873 464.5.5 471.887.5 481h1c0-8.56 6.93959-15.5 15.5-15.5v-1Zm32 1h16v-1H49v1Zm16.5-.5c0-9.113-7.3873-16.5-16.5-16.5v1c8.5604 0 15.5 6.94 15.5 15.5h1ZM49 529.5h16v-1H49v1Zm16.5-.5c0-9.113-7.3873-16.5-16.5-16.5v1c8.5604 0 15.5 6.94 15.5 15.5h1ZM33 512.5H17v1h16v-1Zm-16.5.5c0 9.113 7.3873 16.5 16.5 16.5v-1c-8.5604 0-15.5-6.94-15.5-15.5h-1ZM33 448.5H17v1h16v-1Zm-16.5.5c0 9.113 7.3873 16.5 16.5 16.5v-1c-8.5604 0-15.5-6.94-15.5-15.5h-1Zm48 16v16h1v-16h-1Zm17 16c0-9.113-7.3873-16.5-16.5-16.5v1c8.5604 0 15.5 6.94 15.5 15.5h1Zm0 16v-7.68h-1V497h1Zm0-7.68V481h-1v8.32h1Z" class="path"/><path fill="#BFF589" d="M241 193h-32c0 8.837 7.163 16 16 16h32c0-8.837-7.163-16-16-16Z"/><path fill="#BFF589" d="M257 225v32c8.837 0 16-7.163 16-16v-16c0-8.837-7.163-16-16-16v16Z"/><path fill="#BFF589" d="M241 257h-32c0 8.837 7.163 16 16 16h32c0-8.837-7.163-16-16-16Z"/><path fill="#BFF589" d="M193 225v16c0 8.837 7.163 16 16 16v-48c-8.837 0-16 7.163-16 16Z"/></svg>